<svg xmlns="http://www.w3.org/2000/svg" width="40" height="40" viewBox="0 0 40 40">
  <g id="Group_189756" data-name="Group 189756" transform="translate(-1177 -214)">
    <rect id="Rectangle_26291" data-name="Rectangle 26291" width="40" height="40" rx="2" transform="translate(1177 214)" fill="#fff"/>
    <g id="noun-housing-5257530" transform="translate(1179 214.545)">
      <g id="Group_189270" data-name="Group 189270" transform="translate(8 10.455)">
        <path id="Path_40026" data-name="Path 40026" d="M12.714,38.86h2.05a.391.391,0,0,0,.391-.391V36.7a.391.391,0,0,0-.391-.391h-2.05a.391.391,0,0,0-.391.391v1.773a.391.391,0,0,0,.391.391Zm.39-1.773h1.269v.992H13.1Zm0,0" transform="translate(-10.522 -25.534)" fill="#1e86be"/>
        <path id="Path_40027" data-name="Path 40027" d="M12.714,30.174h2.05a.391.391,0,0,0,.391-.391V28.01a.391.391,0,0,0-.391-.391h-2.05a.391.391,0,0,0-.391.391v1.773a.391.391,0,0,0,.391.391ZM13.1,28.4h1.269v.992H13.1Zm0,0" transform="translate(-10.522 -20.467)" fill="#1e86be"/>
        <path id="Path_40028" data-name="Path 40028" d="M12.714,21.488h2.05a.391.391,0,0,0,.391-.391V19.324a.391.391,0,0,0-.391-.391h-2.05a.391.391,0,0,0-.391.391V21.1a.391.391,0,0,0,.391.391Zm.39-1.773h1.269v.992H13.1Zm0,0" transform="translate(-10.522 -15.401)" fill="#1e86be"/>
        <path id="Path_40029" data-name="Path 40029" d="M26.592,24.675h-.562a.391.391,0,1,0,0,.782h.562a.391.391,0,1,0,0-.782Zm0,0" transform="translate(-18.29 -18.75)" fill="#1e86be"/>
        <path id="Path_40030" data-name="Path 40030" d="M26.592,29.357h-.562a.391.391,0,0,0,0,.782h.562a.391.391,0,1,0,0-.782Zm0,0" transform="translate(-18.29 -21.481)" fill="#1e86be"/>
        <path id="Path_40031" data-name="Path 40031" d="M26.592,34.038h-.562a.391.391,0,1,0,0,.782h.562a.391.391,0,1,0,0-.782Zm0,0" transform="translate(-18.29 -24.212)" fill="#1e86be"/>
        <path id="Path_40032" data-name="Path 40032" d="M26.592,38.719h-.562a.391.391,0,0,0,0,.782h.562a.391.391,0,0,0,0-.782Zm0,0" transform="translate(-18.29 -26.942)" fill="#1e86be"/>
        <path id="Path_40033" data-name="Path 40033" d="M26.592,43.4h-.562a.391.391,0,0,0,0,.782h.562a.391.391,0,0,0,0-.782Zm0,0" transform="translate(-18.29 -29.674)" fill="#1e86be"/>
        <path id="Path_40034" data-name="Path 40034" d="M35.776,38.86h2.05a.391.391,0,0,0,.391-.391V36.7a.391.391,0,0,0-.391-.391h-2.05a.391.391,0,0,0-.391.391v1.773a.391.391,0,0,0,.391.391Zm.391-1.773h1.269v.992H36.167Zm0,0" transform="translate(-23.975 -25.534)" fill="#1e86be"/>
        <path id="Path_40035" data-name="Path 40035" d="M35.776,30.174h2.05a.391.391,0,0,0,.391-.391V28.01a.391.391,0,0,0-.391-.391h-2.05a.391.391,0,0,0-.391.391v1.773a.391.391,0,0,0,.391.391Zm.391-1.773h1.269v.992H36.167Zm0,0" transform="translate(-23.975 -20.467)" fill="#1e86be"/>
        <path id="Path_40036" data-name="Path 40036" d="M35.776,21.488h2.05a.391.391,0,0,0,.391-.391V19.324a.391.391,0,0,0-.391-.391h-2.05a.391.391,0,0,0-.391.391V21.1a.391.391,0,0,0,.391.391Zm.391-1.773h1.269v.992H36.167Zm0,0" transform="translate(-23.975 -15.401)" fill="#1e86be"/>
        <path id="Path_40037" data-name="Path 40037" d="M27.609,12.935h-3.82l-2.7-2.382a.39.39,0,0,0-.516,0l-2.7,2.382H14.18l-2.7-2.382a.39.39,0,0,0-.516,0L8.132,13.042A.391.391,0,0,0,8,13.335V28.018a.391.391,0,0,0,.391.391H27.609A.391.391,0,0,0,28,28.018V13.325a.391.391,0,0,0-.391-.391Zm-18.828.577,2.436-2.145,2.436,2.145V27.627h-1.02V25.447a.391.391,0,0,0-.391-.391h-2.05a.391.391,0,0,0-.391.391v2.181H8.781Zm1.8,14.116v-1.79h1.269v1.79Zm3.851-13.912h3.175V27.628H14.434Zm3.957-.2,2.436-2.145,2.436,2.145V27.627h-1.02V25.447a.391.391,0,0,0-.391-.391H19.8a.391.391,0,0,0-.391.391v2.181h-1.02Zm1.8,14.116v-1.79h1.269v1.79Zm7.027,0H24.043V13.716h3.175Zm0,0" transform="translate(-8 -10.455)" fill="#1e86be"/>
        <path id="Path_40038" data-name="Path 40038" d="M49.093,25.456h.562a.391.391,0,1,0,0-.782h-.562a.391.391,0,0,0,0,.782Zm0,0" transform="translate(-31.743 -18.749)" fill="#1e86be"/>
        <path id="Path_40039" data-name="Path 40039" d="M49.093,30.138h.562a.391.391,0,1,0,0-.782h-.562a.391.391,0,0,0,0,.782Zm0,0" transform="translate(-31.743 -21.481)" fill="#1e86be"/>
        <path id="Path_40040" data-name="Path 40040" d="M49.093,34.819h.562a.391.391,0,1,0,0-.782h-.562a.391.391,0,0,0,0,.782Zm0,0" transform="translate(-31.743 -24.211)" fill="#1e86be"/>
        <path id="Path_40041" data-name="Path 40041" d="M49.093,39.5h.562a.391.391,0,0,0,0-.782h-.562a.391.391,0,0,0,0,.782Zm0,0" transform="translate(-31.743 -26.942)" fill="#1e86be"/>
        <path id="Path_40042" data-name="Path 40042" d="M49.093,44.182h.562a.391.391,0,0,0,0-.782h-.562a.391.391,0,0,0,0,.782Zm0,0" transform="translate(-31.743 -29.673)" fill="#1e86be"/>
      </g>
    </g>
  </g>
</svg>
