<svg xmlns="http://www.w3.org/2000/svg" width="40" height="40" viewBox="0 0 40 40">
  <g id="Group_189758" data-name="Group 189758" transform="translate(-229 -522)">
    <rect id="Rectangle_26291" data-name="Rectangle 26291" width="40" height="40" rx="2" transform="translate(229 522)" fill="#fff"/>
    <g id="noun-washing-hands-4963148" transform="translate(228.99 518.99)">
      <path id="Path_39991" data-name="Path 39991" d="M27.2,19.633V18.575a.9.9,0,0,0-.893-.893H25.2v-1.42h1.445a.207.207,0,0,0,.207-.207V14.9a.893.893,0,0,0-.89-.893H23.232a.889.889,0,0,0-.88.783h-1.8a.185.185,0,0,0-.051.007l-2.133.528a.208.208,0,0,0-.158.2v.523a.207.207,0,0,0,.207.207h4.123l.007,0h1.445v1.42h-1.1a.893.893,0,0,0-.893.893v1.058a5.82,5.82,0,0,0-.929.917,6.157,6.157,0,0,0-1.172,2.617l-.306.168H18.365a1.61,1.61,0,0,1-.375-.044,1.8,1.8,0,0,1-.525-.207,3.1,3.1,0,0,0-3.174.275h-.973v-.129a.207.207,0,0,0-.207-.207h-.769V22.7a.207.207,0,0,0-.207-.207H10.217a.207.207,0,0,0,0,.413h1.712v.287a.194.194,0,0,0-.007.036v3.527a.194.194,0,0,0,.007.036v.287H10.217a.207.207,0,1,0,0,.413h1.919a.207.207,0,0,0,.207-.207v-.323h.773a.207.207,0,0,0,.207-.207v-.1h1l2.751.513c.2.01.4.015.6.015a11.484,11.484,0,0,0,2.281-.226,14.353,14.353,0,0,0,1.292,3.67,1.6,1.6,0,0,0,1.433.888h3.824a1.6,1.6,0,0,0,1.433-.888c1.96-3.887,2.031-7.749.185-10.079A5.691,5.691,0,0,0,27.2,19.633Zm-4.86-3.787H18.628v-.153l1.951-.482h1.763Zm-9.432,10.7h-.567V23.44h.564v3.111Zm10.639-10.7-.007,0h-.783v-.837s0,0,0-.007,0,0,0-.007V14.9a.478.478,0,0,1,.477-.477h2.734a.478.478,0,0,1,.477.477v.944h-2.9Zm1.243.416v1.42h-.379v-1.42Zm-2.376,2.313a.478.478,0,0,1,.477-.477h3.422a.478.478,0,0,1,.477.477v.944H22.415Zm-1.54,5.132a2.1,2.1,0,0,0-.586-.277l.421-.229a1.058,1.058,0,0,1,1.007-.027Zm1.2-.268.007.007.136-.1a.825.825,0,0,1,.669-.134.779.779,0,0,1,.27.134l-1.686,1.029a1.611,1.611,0,0,0-.263-.389Zm-4.945,3.315-2.741-.511v0a.194.194,0,0,0-.036-.007H13.325V23.776h1.031a.225.225,0,0,0,.124-.044l0,0a2.686,2.686,0,0,1,2.8-.282,2.19,2.19,0,0,0,.63.246,2.263,2.263,0,0,0,.462.054h1.282a1.593,1.593,0,0,1,1.464.844.141.141,0,0,1-.015.141.174.174,0,0,1-.131.066,15.008,15.008,0,0,0-2.4.024.207.207,0,0,0,.022.413.067.067,0,0,0,.022,0,14.433,14.433,0,0,1,2.33-.022.564.564,0,0,0,.5-.243.578.578,0,0,0,.068-.134l1.919-1.17,0,0,.165-.109a.98.98,0,0,1,.358-.148,1,1,0,0,1,.647.1.294.294,0,0,1,.17.212c0,.066-.056.151-.175.255a11.758,11.758,0,0,1-3.95,2.381A11.1,11.1,0,0,1,17.127,26.755Zm10.447,3.687a1.181,1.181,0,0,1-1.06.659H22.687a1.178,1.178,0,0,1-1.06-.659,14,14,0,0,1-1.258-3.578c.131-.032.263-.058.392-.095A11.889,11.889,0,0,0,24.871,24.3a.781.781,0,0,0,.319-.6.7.7,0,0,0-.379-.55,1.43,1.43,0,0,0-.936-.148,1.446,1.446,0,0,0-.345.117,1.176,1.176,0,0,0-1.418-.2,1.469,1.469,0,0,0-1.605-.088l-.117.063a5.631,5.631,0,0,1,1-2.092,5.393,5.393,0,0,1,.888-.873h4.636a5.492,5.492,0,0,1,.888.873C29.549,23.01,29.459,26.7,27.574,30.443Z" fill="#1e86be"/>
      <path id="Path_39992" data-name="Path 39992" d="M61.967,31.54a.207.207,0,0,0-.207.207V32.4a.207.207,0,1,0,.413,0v-.657A.2.2,0,0,0,61.967,31.54Z" transform="translate(-39.163 -13.266)" fill="#1e86be"/>
      <path id="Path_39993" data-name="Path 39993" d="M64.427,31.54a.207.207,0,0,0-.207.207V32.4a.207.207,0,1,0,.413,0v-.657A.2.2,0,0,0,64.427,31.54Z" transform="translate(-41.024 -13.266)" fill="#1e86be"/>
      <path id="Path_39994" data-name="Path 39994" d="M66.887,31.54a.207.207,0,0,0-.207.207V32.4a.207.207,0,1,0,.413,0v-.657A.2.2,0,0,0,66.887,31.54Z" transform="translate(-42.886 -13.266)" fill="#1e86be"/>
      <path id="Path_39995" data-name="Path 39995" d="M69.357,31.54a.207.207,0,0,0-.207.207V32.4a.207.207,0,1,0,.413,0v-.657A.207.207,0,0,0,69.357,31.54Z" transform="translate(-44.755 -13.266)" fill="#1e86be"/>
      <path id="Path_39996" data-name="Path 39996" d="M71.817,31.54a.207.207,0,0,0-.207.207V32.4a.207.207,0,1,0,.413,0v-.657A.207.207,0,0,0,71.817,31.54Z" transform="translate(-46.617 -13.266)" fill="#1e86be"/>
      <path id="Path_39997" data-name="Path 39997" d="M74.277,31.54a.207.207,0,0,0-.207.207V32.4a.207.207,0,1,0,.413,0v-.657A.207.207,0,0,0,74.277,31.54Z" transform="translate(-48.479 -13.266)" fill="#1e86be"/>
      <path id="Path_39998" data-name="Path 39998" d="M76.737,31.54a.207.207,0,0,0-.207.207V32.4a.207.207,0,1,0,.413,0v-.657A.207.207,0,0,0,76.737,31.54Z" transform="translate(-50.34 -13.266)" fill="#1e86be"/>
      <path id="Path_39999" data-name="Path 39999" d="M43.429,31.27a1.21,1.21,0,0,0,1.209-1.209,11.455,11.455,0,0,0-1.024-2.646.208.208,0,0,0-.185-.114.205.205,0,0,0-.185.114,11.455,11.455,0,0,0-1.024,2.646A1.21,1.21,0,0,0,43.429,31.27Zm0-3.288a8.978,8.978,0,0,1,.793,2.08.794.794,0,1,1-1.588,0A9.013,9.013,0,0,1,43.429,27.981Z" transform="translate(-24.376 -10.057)" fill="#1e86be"/>
    </g>
  </g>
</svg>
