<?xml version="1.0" encoding="UTF-8" standalone="no"?>
<!-- Created with Inkscape (http://www.inkscape.org/) -->

<svg
   version="1.1"
   id="svg1"
   width="379.30835"
   height="423.74664"
   viewBox="0 0 379.30835 423.74664"
   sodipodi:docname="vd3.svg"
   inkscape:version="1.3.2 (091e20ef0f, 2023-11-25)"
   xmlns:inkscape="http://www.inkscape.org/namespaces/inkscape"
   xmlns:sodipodi="http://sodipodi.sourceforge.net/DTD/sodipodi-0.dtd"
   xmlns="http://www.w3.org/2000/svg"
   xmlns:svg="http://www.w3.org/2000/svg">
  <defs
     id="defs1" />
  <sodipodi:namedview
     id="namedview1"
     pagecolor="#ffffff"
     bordercolor="#000000"
     borderopacity="0.25"
     inkscape:showpageshadow="2"
     inkscape:pageopacity="0.0"
     inkscape:pagecheckerboard="0"
     inkscape:deskcolor="#d1d1d1"
     showgrid="false"
     inkscape:zoom="1.4689781"
     inkscape:cx="178.01491"
     inkscape:cy="253.57764"
     inkscape:window-width="1920"
     inkscape:window-height="1011"
     inkscape:window-x="0"
     inkscape:window-y="0"
     inkscape:window-maximized="1"
     inkscape:current-layer="layer2" />
  <g
     inkscape:groupmode="layer"
     id="layer2"
     inkscape:label="Layer 1">
    <path
       id="path1"
       style="fill:#000000"
       d="M 238.66755 85.5867 C 237.97755 85.5867 237.28625 86.168373 235.99958 87.332794 C 234.53291 88.660107 233.33356 89.363279 233.33356 88.895294 C 233.33356 88.427308 230.54546 90.716554 227.13825 93.981231 C 223.73105 97.24591 220.4304 99.600619 219.80427 99.213653 C 219.17815 98.826689 218.66755 99.543856 218.66755 100.80936 C 218.66755 102.07485 218.32271 102.76726 217.90192 102.34647 C 217.48113 101.92568 214.04981 104.52524 210.27692 108.12381 C 206.50405 111.72237 202.96155 114.66678 202.40583 114.66678 C 201.85011 114.66678 198.25011 117.66614 194.40583 121.33279 C 190.56155 124.99946 186.95 128.00076 186.37849 128.00076 C 185.80698 128.00076 182.79148 130.39947 179.67731 133.33279 C 176.56315 136.26613 173.57535 138.66678 173.03864 138.66678 C 172.50194 138.66678 168.91808 141.66614 165.0738 145.33279 C 161.22952 148.99946 157.61471 152.00076 157.04255 152.00076 C 156.4704 152.00076 153.52999 154.39947 150.50739 157.33279 C 147.4848 160.26613 144.14818 162.66678 143.09333 162.66678 C 142.03846 162.66678 141.54636 163.26743 141.99958 164.00076 C 142.4528 164.73409 142.16783 165.33279 141.36677 165.33279 C 140.56571 165.33279 137.79655 167.44794 135.21247 170.03201 C 132.62839 172.61608 129.94887 174.38124 129.25739 173.95389 C 128.56591 173.52653 127.99958 174.21182 127.99958 175.47733 C 127.99958 176.74282 127.65474 177.43327 127.23396 177.01248 C 126.81317 176.59169 123.38378 179.19126 119.61091 182.78983 C 115.83802 186.38839 112.28267 189.33279 111.71052 189.33279 C 111.13837 189.33279 108.19601 191.73344 105.17341 194.66678 C 102.15081 197.60011 98.81615 200.00076 97.761299 200.00076 C 96.706447 200.00076 96.214325 200.59912 96.667549 201.33279 C 97.120774 202.06613 96.864877 202.66678 96.101143 202.66678 C 95.337408 202.66678 91.900003 205.36336 88.460518 208.65897 C 85.021032 211.95457 81.965667 214.41021 81.671455 214.116 C 81.377244 213.82179 77.737249 216.82262 73.581612 220.78397 L 66.024971 227.98514 L 71.622627 233.58475 C 76.948007 238.91012 77.34332 239.07218 79.716377 236.92459 C 81.088367 235.68296 82.610587 234.66678 83.101143 234.66678 C 83.591698 234.66678 86.194006 232.59317 88.882393 230.0574 C 91.57078 227.52164 94.271036 225.75648 94.884346 226.13553 C 95.497655 226.51458 95.99958 256.18887 95.99958 292.07889 L 95.99958 357.33279 L 86.667549 357.33279 L 77.333565 357.33279 L 77.333565 425.33279 L 77.333565 493.33279 L 104.33356 493.33475 C 119.18355 493.33548 164.1836 493.73355 204.33356 494.21951 L 277.33356 495.10233 L 277.33356 502.21756 L 277.33356 509.33279 L 361.33356 509.33279 L 445.33356 509.33279 L 445.33356 478.00076 L 445.33356 446.66678 L 433.33356 446.66678 L 421.33356 446.66678 L 421.33356 439.92068 C 421.33356 435.76331 421.84577 433.49287 422.66755 434.00076 C 423.40088 434.45398 423.99958 433.58884 423.99958 432.07889 C 423.99958 430.56894 424.60024 429.33279 425.33356 429.33279 C 426.0669 429.33279 426.66755 428.39795 426.66755 427.25467 C 426.66755 426.11139 427.26625 425.54754 427.99958 426.00076 C 428.73291 426.45398 429.33356 425.58884 429.33356 424.07889 C 429.33356 422.56894 429.93421 421.33279 430.66755 421.33279 C 431.40088 421.33279 431.99958 420.13344 431.99958 418.66678 C 431.99958 417.20011 432.60024 416.00076 433.33356 416.00076 C 434.0669 416.00076 434.66755 414.79946 434.66755 413.33279 C 434.66755 411.86614 435.26625 410.66678 435.99958 410.66678 C 436.73291 410.66678 437.33356 408.86678 437.33356 406.66678 C 437.33356 404.46678 437.93421 402.66678 438.66755 402.66678 C 439.40088 402.66678 439.99958 400.90162 439.99958 398.7449 C 439.99958 396.58819 440.6002 394.45398 441.33356 394.00076 C 442.0669 393.54754 442.66755 390.54624 442.66755 387.33279 C 442.66755 384.11936 443.26625 381.12 443.99958 380.66678 C 445.70621 379.612 445.7717 348.64207 444.0738 345.46951 C 443.38063 344.17433 442.66701 340.31465 442.48981 336.89139 C 442.3126 333.46812 441.67987 330.66678 441.08356 330.66678 C 440.48727 330.66678 439.99958 328.86678 439.99958 326.66678 C 439.99958 324.46678 439.40088 322.66678 438.66755 322.66678 C 437.93421 322.66678 437.33356 320.83193 437.33356 318.58865 C 437.33356 316.20906 436.77748 314.85203 435.99958 315.33279 C 435.24337 315.80016 434.66755 314.68005 434.66755 312.7449 C 434.66755 310.86829 434.0669 309.33279 433.33356 309.33279 C 432.60024 309.33279 431.99958 308.40878 431.99958 307.27811 C 431.99958 306.14745 430.80023 303.93442 429.33356 302.36014 C 427.86691 300.78586 426.66755 298.71054 426.66755 297.74881 C 426.66755 296.78709 426.16758 296.00076 425.55817 296.00076 C 424.94875 296.00076 423.59875 294.35546 422.55817 292.34647 C 420.09203 287.58522 395.07007 262.55601 390.32966 260.10818 C 388.31449 259.0676 386.66755 257.71759 386.66755 257.10818 C 386.66755 256.49876 385.46625 256.00076 383.99958 256.00076 C 381.49453 256.00076 381.33356 255.11056 381.33356 241.33279 C 381.33356 224.50854 381.8225 223.97366 390.08942 231.76053 C 398.23094 239.42927 399.46221 239.54231 405.63239 233.18436 L 410.9781 227.67654 L 405.31989 222.50467 C 402.20829 219.66038 399.24537 217.33279 398.73591 217.33279 C 398.22645 217.33279 394.99248 214.63279 391.54841 211.33279 C 388.10433 208.0328 385.00318 205.33279 384.65778 205.33279 C 383.77556 205.33279 379.10235 201.43389 373.86872 196.33279 C 371.42347 193.94947 368.76743 192.00076 367.96638 192.00076 C 367.16532 192.00076 366.88035 191.40011 367.33356 190.66678 C 367.78679 189.93344 367.29466 189.33279 366.23981 189.33279 C 365.18496 189.33279 361.84835 186.93409 358.82575 184.00076 C 355.80316 181.06744 352.88077 178.66111 352.33161 178.65311 C 351.78245 178.64529 348.5461 176.09398 345.14021 172.98514 C 341.73431 169.87629 337.59459 166.43279 335.94099 165.33279 C 334.28739 164.23279 330.38299 160.82574 327.26325 157.76053 C 324.14353 154.69533 321.33578 152.44191 321.02497 152.75272 C 320.71415 153.06354 317.6461 150.62059 314.20661 147.32498 C 310.76713 144.02937 307.32777 141.33279 306.56403 141.33279 C 305.8003 141.33279 305.54636 140.73409 305.99958 140.00076 C 306.4528 139.26743 305.96068 138.66678 304.90583 138.66678 C 303.85098 138.66678 300.51436 136.26613 297.49177 133.33279 C 294.46917 130.39947 291.36129 128.00076 290.58552 128.00076 C 289.80975 128.00076 289.54636 127.40011 289.99958 126.66678 C 290.4528 125.93344 289.96068 125.33279 288.90583 125.33279 C 287.85098 125.33279 284.51589 122.93368 281.49372 120.00076 C 278.47155 117.06786 275.54917 114.5185 274.99958 114.33475 C 274.44999 114.15099 274.15023 113.55076 274.33356 113.00076 C 274.5169 112.45076 273.83928 112.00076 272.82771 112.00076 C 271.81614 112.00076 268.51589 109.59969 265.49372 106.66678 C 262.47155 103.73387 259.63225 101.4055 259.18513 101.491 C 258.738 101.57649 255.13954 98.602087 251.18708 94.881622 C 247.23461 91.161157 243.99958 88.484184 243.99958 88.932403 C 243.99958 89.380622 242.80023 88.660107 241.33356 87.332794 C 240.0469 86.168373 239.35755 85.5867 238.66755 85.5867 z M 382.04841 277.33279 C 382.44129 277.33279 384.09064 278.52928 385.71442 279.991 C 387.33822 281.45271 391.81755 285.44205 395.66755 288.85623 C 399.51755 292.27042 402.66755 295.91007 402.66755 296.94412 C 402.66755 297.97816 403.26625 298.45398 403.99958 298.00076 C 404.73291 297.54754 405.33356 297.83606 405.33356 298.64334 C 405.33356 299.45061 406.53291 301.39914 407.99958 302.97342 C 409.46625 304.54771 410.66755 306.62303 410.66755 307.58475 C 410.66755 308.54647 411.1562 309.33279 411.75349 309.33279 C 413.30693 309.33279 418.66755 319.76773 418.66755 322.79178 C 418.66755 324.18914 419.26625 325.33279 419.99958 325.33279 C 420.73291 325.33279 421.33356 327.1328 421.33356 329.33279 C 421.33356 331.53279 421.93421 333.33279 422.66755 333.33279 C 423.40088 333.33279 423.99958 335.6986 423.99958 338.58865 C 423.99958 341.4787 424.60024 344.21355 425.33356 344.66678 C 426.1108 345.14714 426.66755 352.6544 426.66755 362.66678 C 426.66755 372.67915 426.1108 380.18642 425.33356 380.66678 C 424.60024 381.12 423.99958 383.85485 423.99958 386.7449 C 423.99958 389.63495 423.40088 392.00076 422.66755 392.00076 C 421.92989 392.00076 421.33356 388.49847 421.33356 384.16287 C 421.33356 374.98947 419.27284 372.1063 414.73005 374.92264 C 412.3796 376.37982 411.7237 376.35288 410.7281 374.75272 C 409.741 373.16621 409.17692 373.13724 407.43513 374.58279 C 406.02827 375.75038 405.33356 375.83268 405.33356 374.83084 C 405.33356 374.00771 403.45921 373.33279 401.16755 373.33279 C 397.24903 373.33279 397.048 373.09457 397.80036 369.33279 C 398.24036 367.1328 398.24036 363.53279 397.80036 361.33279 C 397.02041 357.43304 396.80457 357.33279 389.16755 357.33279 L 381.33356 357.33279 L 381.33356 317.33279 C 381.33356 295.33282 381.65554 277.33279 382.04841 277.33279 z "
       transform="translate(-66.024971,-85.5867)" />
    <g
       id="layer1"
       inkscape:label="01"
       transform="translate(-66.024971,-85.5867)"
       style="display:inline;fill:#cccccc">
      <path
         style="fill:#cccccc"
         d="m 198.66667,362 c 0,-1.57265 -1.85186,-2 -8.66667,-2 -4.76667,0 -8.66667,0.55 -8.66667,1.22222 0,1.86781 2.66558,2.55721 10.33334,2.67252 5.38011,0.0809 7,-0.35756 7,-1.89474 z"
         id="path125" />
      <path
         style="fill:#cccccc"
         d="m 175.70333,364.59106 c 1.62983,-1.14158 2.96334,-2.64158 2.96334,-3.33333 C 178.66667,360.54256 172.05218,360 163.33333,360 150.82608,360 148,360.35641 148,361.93375 c 0,3.29019 4.2615,4.65019 14.70333,4.69237 6.98029,0.0282 10.93905,-0.59152 13,-2.03506 z"
         id="path124" />
      <path
         style="fill:#cccccc"
         d="m 353.72901,365.74659 c 3.70383,-0.57149 4.95221,-1.35791 4.65192,-2.93051 -0.33051,-1.73089 -2.54944,-2.22482 -11.39568,-2.53667 C 336.08295,359.89508 336,359.91706 336,363.19085 c 0,2.56859 0.81155,3.42751 3.66667,3.88071 2.01666,0.3201 4.86666,0.32869 6.33333,0.0191 1.46667,-0.30962 4.94472,-0.91444 7.72901,-1.34404 z"
         id="path123" />
      <path
         style="fill:#cccccc"
         d="M 145.08856,363.66667 145.51046,360 H 129.4219 c -15.1481,0 -16.08857,0.1544 -16.08857,2.64126 0,1.79645 1.17281,2.89993 3.66667,3.44997 2.01667,0.44478 4.26667,1.02033 5,1.279 0.73333,0.25866 6.13333,0.35618 12,0.2167 10.57374,-0.25139 10.67034,-0.28554 11.08856,-3.92026 z"
         id="path122" />
      <path
         style="fill:#cccccc"
         d="m 109.62367,363.95963 0.593,-4.04036 -15.332875,0.3737 c -10.805062,0.26334 -15.496245,0.86586 -15.886112,2.04036 -0.364763,1.09887 0.960884,1.70123 3.891206,1.76811 2.444444,0.0558 6.544444,0.91014 9.111111,1.89856 2.566667,0.98842 7.448567,1.84277 10.84867,1.89856 5.89124,0.0967 6.20989,-0.0886 6.775,-3.93893 z"
         id="path121" />
      <path
         style="fill:#cccccc"
         d="M 309.71967,366.66667 C 309.33612,365.2 308.4923,364 307.84449,364 c -0.6478,0 -1.17782,1.2 -1.17782,2.66667 0,1.46666 0.84382,2.66666 1.87517,2.66666 1.21874,0 1.63105,-0.93351 1.17783,-2.66666 z"
         id="path120" />
      <path
         style="fill:#cccccc"
         d="m 394.70196,370.60073 c 0.80434,-1.50293 1.27545,-4.35293 1.04691,-6.33333 l -0.41554,-3.60073 H 378.66667 362 l -0.40074,3.44746 c -0.62308,5.36007 2.83739,7.13252 15.59791,7.98926 6.30822,0.42353 12.49839,0.87353 13.75592,1 1.25753,0.12647 2.94452,-0.99973 3.74887,-2.50266 z"
         id="path119" />
      <path
         style="fill:#cccccc"
         d="m 361.72891,371.37523 c -1.45572,-2.00011 -3.74693,-3.30787 -5.84002,-3.33333 -4.50628,-0.0548 -5.41703,1.01569 -3.48969,4.10185 1.09735,1.75712 3.11598,2.52292 6.65044,2.52292 h 5.07485 z"
         id="path117" />
      <path
         style="fill:#cccccc"
         d="m 348.18562,371.95564 c -4.2201,-3.5157 -12.31809,-3.49255 -15.51895,0.0444 -2.39422,2.64557 -2.32994,2.66632 8.12668,2.62231 l 10.53998,-0.0444 z"
         id="path116" />
      <path
         style="fill:#cccccc"
         d="m 303.74352,368.32955 c 0.3664,-5.06529 0.037,-5.81234 -3.0868,-7 -4.33077,-1.64655 -25.56399,-1.76429 -26.56335,-0.14729 -0.40187,0.65024 0.14684,1.91053 1.21936,2.80064 1.07252,0.89011 2.33674,3.67968 2.80937,6.19903 l 0.85933,4.58064 12.17595,-0.38128 L 303.33333,374 Z"
         id="path115" />
      <path
         style="fill:#cccccc"
         d="m 310.19048,374 c 1.77777,-1.77778 1.71126,-2 -0.59865,-2 -1.42925,0 -3.34558,0.9 -4.2585,2 -1.36432,1.6439 -1.25773,2 0.59865,2 1.24217,0 3.1585,-0.9 4.2585,-2 z"
         id="path114" />
      <path
         style="fill:#cccccc"
         d="m 269,376.46936 c 6.0681,-0.72887 7,-1.23126 7,-3.77371 0,-1.6131 -1.65,-5.10766 -3.66667,-7.76569 L 268.66667,360.09718 257,360.04859 c -9.19934,-0.0383 -11.66667,0.35088 -11.66667,1.8403 0,1.03889 -0.54185,2.08889 -1.20411,2.33333 -0.66227,0.24445 -1.41227,2.84445 -1.66667,5.77778 -0.45959,5.29918 -0.4284,5.33853 4.87078,6.14413 7.78656,1.18374 13.77129,1.27357 21.66667,0.32523 z"
         id="path113" />
      <path
         style="fill:#cccccc"
         d="m 235,377.26323 c 5.40479,-1.50099 5.75202,-2.53505 4.13564,-12.31602 l -0.83502,-5.05279 -10.15031,0.38612 c -9.54756,0.3632 -10.17697,0.57465 -10.59927,3.56078 -1.72318,12.18501 4.544,17.00579 17.44896,13.42191 z"
         id="path112" />
      <path
         style="fill:#cccccc"
         d="m 195.66667,377.82629 c 2.45807,-0.65874 3,-1.7393 3,-5.9818 v -5.17782 h -11.27938 c -10.58146,0 -11.48896,0.22603 -14.66666,3.65304 -1.86302,2.00917 -3.3873,4.07386 -3.3873,4.5882 0,2.42172 19.94043,4.63161 26.33334,2.91838 z"
         id="path111" />
      <path
         style="fill:#cccccc"
         d="m 98.417811,374.39258 c -0.388874,-3.97808 -0.935835,-4.40848 -7.897413,-6.21444 -9.455669,-2.45297 -11.853731,-1.59835 -11.853731,4.22446 0,2.46746 0.4,4.88629 0.888889,5.37518 0.488888,0.48889 5.026904,0.88889 10.084478,0.88889 h 9.195589 z"
         id="path110" />
      <path
         style="fill:#cccccc"
         d="m 162.22601,376.60747 c 2.32431,-0.94328 4.89542,-2.96584 5.71358,-4.49459 1.47052,-2.74769 1.29814,-2.77955 -15.04112,-2.77955 h -16.52868 l 0.64546,3.37652 c 1.31723,6.89064 13.27891,8.73994 25.21076,3.89762 z"
         id="path109" />
      <path
         style="fill:#cccccc"
         d="m 124.41619,378.19235 c 6.92219,-1.46173 10.16895,-3.53282 10.23006,-6.52568 0.0112,-0.55 -7.47958,-1 -16.64625,-1 h -16.66667 v 3.29521 c 0,5.50598 9.12385,7.17814 23.08286,4.23047 z"
         id="path108" />
      <path
         style="fill:#cccccc"
         d="m 404.48217,379.33333 c 0.65095,-1.69635 -1.27529,-2 -12.68728,-2 -11.80859,0 -13.25166,0.2447 -11.79489,2 1.23059,1.48277 4.51172,2 12.68727,2 8.57217,0 11.1983,-0.4453 11.7949,-2 z"
         id="path107" />
      <path
         style="fill:#cccccc"
         d="M 372.60393,382.45265 C 374.47177,381.6016 376,380.1016 376,379.11931 c 0,-1.38417 -3.29965,-1.78598 -14.66667,-1.78598 -12.28524,0 -14.66666,0.33172 -14.66666,2.04297 0,1.12363 1.35,2.5856 3,3.24882 4.34395,1.74605 18.96789,1.63609 22.93726,-0.17247 z"
         id="path106" />
      <path
         style="fill:#cccccc"
         d="M 340.85276,384 C 343.32093,384 344,383.28077 344,380.66667 v -3.33334 h -15.33333 c -12.46164,0 -15.33334,0.35984 -15.33334,1.92131 0,3.74561 8.83171,6.28517 18.51943,5.32527 3.21902,-0.31895 7.26902,-0.57991 9,-0.57991 z"
         id="path105" />
      <path
         style="fill:#cccccc"
         d="m 310.66667,381.33333 v -4 h -15.33334 c -13.87401,0 -15.33333,0.22832 -15.33333,2.39894 0,1.91539 0.87345,2.30283 4.33333,1.92219 2.38334,-0.26221 6.73334,0.41599 9.66667,1.50711 2.93333,1.09113 7.88333,2.02614 11,2.07781 5.42829,0.09 5.66667,-0.0743 5.66667,-3.90605 z"
         id="path104" />
      <path
         style="fill:#cccccc"
         d="m 255.57558,385.94608 c 0.2532,-0.76298 -0.40479,-2.56298 -1.46219,-4 -1.71058,-2.32466 -3.36649,-2.58147 -15.01798,-2.32906 -11.5915,0.25111 -13.36338,0.6126 -15.42874,3.14771 -1.28334,1.57522 -2.33334,3.41548 -2.33334,4.08948 0,1.73481 33.66143,0.84208 34.24225,-0.90813 z"
         id="path103" />
      <path
         style="fill:#cccccc"
         d="M 196.33333,388.01821 C 199.51447,388.00241 200,387.47033 200,384 c 0,-2.2 -0.22673,-4 -0.50383,-4 -2.60858,0 -10.39152,4.60261 -11.5994,6.85955 -1.40245,2.62051 -1.26488,2.79224 1.61858,2.0204 1.73323,-0.46395 4.80132,-0.85173 6.81798,-0.86174 z"
         id="path102" />
      <path
         style="fill:#cccccc"
         d="m 276.55762,391.19068 c 1.52839,-0.5865 2.10905,-2.61841 2.10905,-7.38024 0,-6.18016 -0.16023,-6.48518 -2.69423,-5.12903 -1.48182,0.79305 -3.26218,1.09089 -3.95635,0.66187 -0.69417,-0.42902 -4.28177,-0.37947 -7.97244,0.11011 -5.86674,0.77825 -6.71032,1.27771 -6.71032,3.97303 0,3.47139 1.30757,4.57745 8,6.76711 5.59294,1.82992 8.40346,2.0796 11.22429,0.99715 z"
         id="path100" />
      <path
         style="fill:#cccccc"
         d="m 183.28272,388.34336 c 1.86484,-2.01116 3.19464,-4.24461 2.9551,-4.96323 -1.10163,-3.30489 -19.37363,-4.40157 -31.78995,-1.90801 l -7.33022,1.47212 2.0523,4.52788 2.0523,4.52788 h 14.33492 c 13.91545,0 14.43413,-0.107 17.72555,-3.65664 z"
         id="path99" />
      <path
         style="fill:#cccccc"
         d="m 417.99543,385.29396 -0.95206,-8.20301 -4.85196,0.91024 c -6.9095,1.29623 -8.84822,5.43411 -5.00719,10.68704 1.6767,2.29301 10.14103,6.20382 11.28952,5.21613 0.26056,-0.22407 0.0453,-4.09875 -0.47831,-8.6104 z"
         id="path98" />
      <path
         style="fill:#cccccc"
         d="m 402.99051,392.69249 c 1.72805,-0.72169 2.10809,-1.87495 1.48233,-4.49817 -0.46284,-1.94021 -1.1475,-4.06424 -1.52146,-4.72007 -0.38166,-0.66933 -7.16652,-0.82127 -15.46675,-0.34637 -13.2458,0.75787 -15.02853,1.16005 -17.10608,3.85908 -3.13721,4.07567 -2.95877,6.0336 0.62145,6.81913 4.22248,0.92644 29.18651,0.0574 31.99051,-1.1136 z"
         id="path97" />
      <path
         style="fill:#cccccc"
         d="m 113.8179,391.69872 c 1.98399,-7.4051 1.21724,-8.8134 -5.33324,-9.79571 -7.85902,-1.17853 -25.720045,0.13237 -27.614426,2.02676 -0.79306,0.79306 -1.508235,3.44034 -1.589278,5.88285 l -0.147351,4.44092 16.935972,0.23862 c 16.581853,0.23363 16.952963,0.17522 17.748323,-2.79344 z"
         id="path96" />
      <path
         style="fill:#cccccc"
         d="m 358.78782,393.97961 c 3.26124,-1.11122 6.67321,-3.21122 7.58215,-4.66667 1.61393,-2.58431 1.27773,-2.64627 -14.35867,-2.64627 -13.34338,0 -16.0113,0.33325 -16.0113,2 0,6.74167 11.04034,9.31571 22.78782,5.31294 z"
         id="path95" />
      <path
         style="fill:#cccccc"
         d="m 299.7339,391.23119 c 0.36472,-3.73496 -0.0668,-4.24217 -4.82136,-5.66666 C 292.04048,384.70404 287.51023,384 284.84531,384 280.25264,384 280,384.22942 280,388.4 c 0,6.42636 2.07815,7.77031 11.32193,7.32193 7.87269,-0.38187 8.01834,-0.45962 8.41197,-4.49074 z"
         id="path94" />
      <path
         style="fill:#cccccc"
         d="m 325.02198,395.03471 c 6.00804,-0.63799 7.1382,-1.20868 7.8268,-3.95228 0.44265,-1.76364 0.58275,-3.32868 0.31135,-3.47786 -0.27141,-0.14918 -7.24346,-0.0838 -15.49346,0.14528 -14.79053,0.41069 -15,0.4608 -15,3.5882 0,2.64391 0.94293,3.38235 5.66666,4.43771 3.11667,0.69631 6.56667,0.9822 7.66667,0.63531 1.1,-0.34689 5.15989,-0.96625 9.02198,-1.37636 z"
         id="path93" />
      <path
         style="fill:#cccccc"
         d="m 147.30871,393.44545 c 0.51142,-2.32847 0.15281,-5.02268 -0.89406,-6.71711 -2.40794,-3.89741 -14.44958,-7.26877 -22.17844,-6.20941 -7.07868,0.97024 -6.57172,0.61758 -6.9208,4.8144 -0.73114,8.7903 -0.60883,8.9304 9.01792,10.32971 4.95,0.71952 11.50233,1.38968 14.56073,1.48925 5.11665,0.16659 5.62892,-0.12944 6.41465,-3.70684 z"
         id="path92" />
      <path
         style="fill:#cccccc"
         d="m 417.33333,397.46377 c 0,-1.24035 -7.25996,-4.20711 -9.86563,-4.03155 -1.07791,0.0726 6.8336,4.33498 9.5323,5.13556 0.18333,0.0544 0.33333,-0.44242 0.33333,-1.10401 z"
         id="path91" />
      <path
         style="fill:#cccccc"
         d="m 276.59106,398.36999 c 2.87511,-4.10479 2.60052,-5.21921 -1.05965,-4.30056 -1.72439,0.43279 -6.37439,-0.1322 -10.33333,-1.25555 -3.95894,-1.12334 -9.58669,-2.21601 -12.5061,-2.42816 L 247.38396,390 l -0.78162,5.66667 -0.78162,5.66666 h 14.34737 c 13.31467,0 14.49676,-0.21329 16.42297,-2.96334 z"
         id="path90" />
      <path
         style="fill:#cccccc"
         d="m 242.66667,396.84112 c 0,-4.15518 -0.37512,-4.55421 -5,-5.31866 -2.75,-0.45454 -7.55,-0.83305 -10.66667,-0.84112 -6.11242,-0.0158 -6.73184,1.0101 -4.36633,7.23186 1.22549,3.2233 1.83936,3.42013 10.66666,3.42013 h 9.36634 z"
         id="path89" />
      <path
         style="fill:#cccccc"
         d="m 203.42318,400 c -0.41608,-1.46667 -1.09695,-3.86667 -1.51303,-5.33333 C 201.25326,392.35118 200.01257,392 192.48916,392 c -10.76068,0 -13.82249,1.48712 -13.82249,6.71358 v 3.95309 h 12.75651 c 12.1198,0 12.71876,-0.1331 12,-2.66667 z"
         id="path88" />
      <path
         style="fill:#cccccc"
         d="m 415.19501,403.21301 c 1.25734,-3.27657 -0.0152,-4.25262 -7.55159,-5.79205 -8.83409,-1.80451 -19.07164,0.48232 -21.99142,4.91237 l -1.97726,3 h 15.35331 c 12.80463,0 15.48838,-0.35198 16.16696,-2.12032 z"
         id="path87" />
      <path
         style="fill:#cccccc"
         d="m 382.01084,403.74395 c 3.40152,-4.04247 3.45177,-4.30393 1.00144,-5.21037 -6.04838,-2.23744 -17.91085,-2.73431 -26.90511,-1.12695 -5.19228,0.92791 -9.4405,2.16279 -9.4405,2.74417 0,0.58138 0.69631,2.58529 1.54735,4.45313 1.51846,3.33265 1.81503,3.39607 15.88148,3.39607 h 14.33412 z"
         id="path86" />
      <path
         style="fill:#cccccc"
         d="m 174.11695,406.97958 c 2.48798,-1.68047 3.00789,-6.6839 0.9934,-9.55999 -1.69948,-2.42635 -3.31741,-2.75292 -13.6386,-2.75292 -11.25486,0 -11.77057,0.1321 -13.25773,3.39607 -2.96475,6.50692 -2.09388,8.40137 4.11931,8.96099 10.62405,0.95689 20.3307,0.93722 21.78362,-0.0442 z"
         id="path85" />
      <path
         style="fill:#cccccc"
         d="m 106.62022,406.69152 c 2.89714,-1.5505 5.55986,-6.5206 4.47787,-8.35819 -0.86844,-1.47492 -25.534143,-1.21724 -28.362213,0.2963 -4.065233,2.17564 -4.536027,5.65715 -1.134249,8.38774 2.537749,2.03704 4.707102,2.35246 12.610048,1.83348 5.249756,-0.34474 10.833604,-1.31644 12.408544,-2.15933 z"
         id="path84" />
      <path
         style="fill:#cccccc"
         d="m 314.41203,404.29166 0.41204,-5.70833 -16.41204,0.375 -16.41203,0.375 -0.41203,5.70834 -0.41204,5.70834 L 297.58797,410.375 314,410 Z"
         id="path83" />
      <path
         style="fill:#cccccc"
         d="m 139.74331,407.36452 c 3.50408,-0.74961 4.32576,-1.52164 4,-3.75829 -0.33864,-2.32511 -1.91792,-3.10141 -9.07664,-4.46167 -13.70682,-2.60449 -17.14849,-2.34239 -18.87053,1.43708 -2.54964,5.59585 -0.72755,7.41836 7.41666,7.41836 4.01307,0 7.68531,0.62913 8.16055,1.39808 0.54364,0.87964 1.43808,0.93673 2.41202,0.15396 0.85138,-0.68426 3.53245,-1.66865 5.95794,-2.18752 z"
         id="path82" />
      <path
         style="fill:#cccccc"
         d="m 206.42149,408.66103 c -0.83673,-1.83643 -1.77865,-3.08165 -2.09315,-2.76715 -0.94172,0.94172 1.0878,6.10612 2.39959,6.10612 0.6682,0 0.5303,-1.50254 -0.30644,-3.33897 z"
         id="path81" />
      <path
         style="fill:#cccccc"
         d="m 346.41553,409.06594 c 0.68336,-5.92145 -1.87404,-8.83403 -9.77298,-11.13032 -4.01146,-1.16616 -8.34708,-1.83451 -9.63472,-1.48522 -1.28764,0.3493 -3.99116,1.00228 -6.00783,1.45108 -3.25519,0.72442 -3.66667,1.41635 -3.66667,6.16577 0,3.53884 0.68088,5.61105 2.0114,6.12162 3.48913,1.33891 15.77368,2.88008 21.32194,2.67496 4.74426,-0.17539 5.37923,-0.59486 5.74886,-3.79789 z"
         id="path80" />
      <path
         style="fill:#cccccc"
         d="m 418.66667,412.19191 c 0,-5.07357 -0.0657,-5.13957 -4.97822,-5 -4.68524,0.1331 -5.02601,0.43569 -5.79011,5.14142 l -0.81189,5 h 5.79011 5.79011 z"
         id="path79" />
      <path
         style="fill:#cccccc"
         d="m 277.31292,410.07849 c -0.0461,-6.20247 -1.50581,-6.70677 -18.24495,-6.3035 -19.38676,0.46706 -20.60981,0.76207 -19.18076,4.62655 1.26133,3.41089 6.77685,4.73709 20.19128,4.85495 5.46656,0.048 9.71548,0.80359 11.33334,2.01533 2.28615,1.71228 2.78266,1.68255 4.25484,-0.25484 0.91666,-1.20633 1.65748,-3.42865 1.64625,-4.93849 z"
         id="path78" />
      <path
         style="fill:#cccccc"
         d="M 401.89095,417.85735 C 403.13716,417.37913 404,415.48033 404,413.21608 c 0,-4.77908 -3.02495,-5.72278 -15.99478,-4.98992 -10.43281,0.58951 -12.74002,1.99799 -11.4822,7.00955 0.83956,3.34504 1.14154,3.43096 12.06,3.43096 6.15938,0 12.14795,-0.3642 13.30793,-0.80932 z"
         id="path77" />
      <path
         style="fill:#cccccc"
         d="m 235.94502,415.43606 c 2.81743,-5.26442 0.87654,-9.65183 -4.73551,-10.70465 -2.64843,-0.49685 -5.11352,-0.60518 -5.47796,-0.24073 -0.81364,0.81363 6.33921,14.17599 7.58838,14.17599 0.49287,0 1.67416,-1.45378 2.62509,-3.23061 z"
         id="path76" />
      <path
         style="fill:#cccccc"
         d="m 172.22835,416.46002 c 1.34107,-1.21366 2.43832,-3.31366 2.43832,-4.66667 0,-2.25925 -1.35315,-2.46002 -16.57987,-2.46002 -19.17987,0 -23.42013,1.08034 -23.42013,5.967 v 3.36634 h 17.56168 c 14.47022,0 17.9909,-0.38845 20,-2.20665 z"
         id="path75" />
      <path
         style="fill:#cccccc"
         d="m 200.56102,416.20429 c 4.14473,-8.01502 0.31306,-10.87096 -14.58503,-10.87096 -7.86285,0 -8.64266,0.85197 -8.64266,9.44239 V 420 h 10.63243 c 10.33809,0 10.68676,-0.10508 12.59526,-3.79571 z"
         id="path74" />
      <path
         style="fill:#cccccc"
         d="m 372.08766,422.61975 c 3.12054,-1.67006 3.38021,-6.9614 0.48377,-9.85785 -1.54688,-1.54688 -4.81921,-2.09523 -12.50341,-2.09523 -11.36094,0 -12.82701,0.79493 -14.2089,7.70438 -0.79425,3.97126 -0.64122,4.13572 4.32542,4.64879 10.61485,1.09655 19.4067,0.93595 21.90312,-0.40009 z"
         id="path73" />
      <path
         style="fill:#cccccc"
         d="m 130.70196,421.2674 c 0.80434,-1.50294 1.27545,-4.35294 1.04691,-6.33334 -0.38397,-3.32719 -1.02328,-3.68029 -8.41554,-4.64809 -11.78622,-1.54306 -18.61033,-0.26668 -20.4769,3.83001 -2.18993,4.80638 -1.87757,8.26252 0.81024,8.96492 1.28333,0.33537 7.56222,0.67936 13.95308,0.76443 10.43496,0.1389 11.76888,-0.12396 13.08221,-2.57793 z"
         id="path72" />
      <path
         style="fill:#cccccc"
         d="m 98.684873,421 c 0.01001,-1.65 0.35949,-4.2716 0.776614,-5.82578 0.695893,-2.59285 0.117396,-2.88126 -7.018206,-3.49899 -11.263769,-0.97511 -15.362292,2.05245 -12.193477,9.00724 1.379037,3.02665 2.252688,3.31753 9.964216,3.31753 7.871424,0 8.453899,-0.20629 8.470853,-3 z"
         id="path71" />
      <path
         style="fill:#cccccc"
         d="M 301.19469,424.11673 C 308.59501,423.06559 312,420.42752 312,415.74516 c 0,-2.16063 -1.34306,-2.41183 -12.89501,-2.41183 -10.12785,0 -13.41826,0.47353 -15.33334,2.20665 -3.01223,2.72604 -3.05961,4.23019 -0.23167,7.35503 2.37249,2.62157 6.02154,2.87409 17.65471,1.22172 z"
         id="path70" />
      <path
         style="fill:#cccccc"
         d="m 337.34516,424 c 1.17984,0 3.30984,-0.86333 4.73333,-1.91851 4.33882,-3.21619 -0.0151,-5.88101 -12.60738,-7.71636 -10.47595,-1.52688 -11.18477,-1.47231 -12.99277,1.00027 -1.05177,1.43839 -1.73967,3.8196 -1.52866,5.29159 0.32231,2.24843 1.55617,2.74185 7.71699,3.08605 4.03333,0.22535 7.90333,0.97535 8.6,1.66667 0.79333,0.78725 1.76491,0.75871 2.6,-0.0764 C 334.6,424.6 336.16532,424 337.34516,424 Z"
         id="path69" />
      <path
         style="fill:#cccccc"
         d="m 282.66667,425.25465 c 0,-0.69005 -0.6,-1.25464 -1.33334,-1.25464 C 280.6,424 280,424.93541 280,426.07869 c 0,1.14328 0.6,1.70787 1.33333,1.25464 0.73334,-0.45322 1.33334,-1.38863 1.33334,-2.07869 z"
         id="path68" />
      <path
         style="fill:#cccccc"
         d="m 406.68487,427.66668 c 0.01,-0.91667 0.40312,-3.10508 0.87356,-4.86314 0.79525,-2.97191 0.58341,-3.12822 -3.01548,-2.22495 -5.16069,1.29525 -5.25096,1.4756 -2.69282,5.37981 2.3558,3.59541 4.80468,4.46068 4.83474,1.70828 z"
         id="path67" />
      <path
         style="fill:#cccccc"
         d="m 213.80087,423.66668 c -2.03439,-3.85 -3.81608,-7.19425 -3.95931,-7.43165 -0.14323,-0.23741 -2.11617,0.528 -4.38432,1.70091 -3.38894,1.75248 -4.12391,2.94449 -4.12391,6.68831 0,4.39077 0.20523,4.57425 5.66667,5.06615 3.11667,0.28072 6.75411,0.61522 8.08322,0.74333 2.14506,0.20678 2.00099,-0.55347 -1.28235,-6.76705 z"
         id="path66" />
      <path
         style="fill:#cccccc"
         d="m 198.13473,427.27125 c 0.4687,-1.86749 0.63014,-3.59748 0.35873,-3.84443 -0.2714,-0.24695 -9.34346,-0.88138 -20.16013,-1.40985 l -19.66666,-0.96085 v 4.80528 4.80528 h 19.30793 19.30793 z"
         id="path65" />
      <path
         style="fill:#cccccc"
         d="m 276.85645,426.28146 c -2.12338,-8.46021 -8.69928,-11.35491 -26.18978,-11.52868 -5.76515,-0.0573 -8.16955,0.59623 -11.24372,3.056 -3.65802,2.92694 -3.80252,3.38925 -2.23908,7.16372 1.56779,3.785 2.23902,4.0908 10.83937,4.93825 5.04244,0.49687 11.15003,0.57731 13.57242,0.17876 2.46342,-0.4053 6.16707,0.0767 8.40434,1.09385 5.05751,2.29926 8.11517,0.11324 6.85645,-4.9019 z"
         id="path64" />
      <path
         style="fill:#cccccc"
         d="m 418.66667,427.24887 v -7.41782 l -4.33334,0.41782 c -4.06932,0.39235 -4.35835,0.76392 -4.74403,6.09882 -0.35314,4.88491 0.0206,5.854 2.66667,6.91548 5.83613,2.34114 6.4107,1.8021 6.4107,-6.0143 z"
         id="path63" />
      <path
         style="fill:#cccccc"
         d="m 370.89501,432.46003 c 1.34108,-1.21366 2.43832,-3.31366 2.43832,-4.66667 0,-2.25825 -1.33966,-2.45852 -16.33333,-2.44181 -18.22846,0.0203 -21.77279,0.59787 -22.98033,3.74467 -1.61468,4.20777 3.0651,5.57046 19.13018,5.57046 12.37208,0 15.77434,-0.42308 17.74516,-2.20665 z"
         id="path62" />
      <path
         style="fill:#cccccc"
         d="m 128.76033,430.8478 c -1.93018,-3.73255 -2.27004,-3.83298 -15.03424,-4.44282 -7.18268,-0.34316 -15.342053,-0.35522 -18.131933,-0.0268 -4.272043,0.50292 -5.008465,1.04622 -4.666666,3.44282 0.380302,2.66658 1.370787,2.89185 15.739179,3.5797 8.43333,0.40373 17.29874,0.85373 19.7009,1 l 4.36758,0.26596 z"
         id="path61" />
      <path
         style="fill:#cccccc"
         d="m 396.57143,433.90477 c 2.97324,-2.97324 2.69145,-9.49185 -0.48377,-11.19118 -1.41846,-0.75914 -6.44178,-1.38025 -11.16293,-1.38025 h -8.58391 l -0.83589,5.22738 c -1.3695,8.56442 -0.45417,9.43929 9.87582,9.43929 6.4908,0 9.69545,-0.60001 11.19068,-2.09524 z"
         id="path60" />
      <path
         style="fill:#cccccc"
         d="m 155.38883,430.09468 c 0.48706,-3.24794 0.48841,-6.54794 0.003,-7.33334 -0.49903,-0.80745 -5.18055,-1.428 -10.77313,-1.428 -9.12115,0 -10.06326,0.26356 -12.11044,3.38796 -1.7487,2.66884 -1.91271,4.06209 -0.77274,6.56406 1.60872,3.53076 4.07522,4.26717 15.18277,4.53307 L 154.50327,436 Z"
         id="path59" />
      <path
         style="fill:#cccccc"
         d="m 330.0721,436.74376 c 1.17346,-1.79093 1.9373,-4.63472 1.6974,-6.31953 -0.37116,-2.60677 -1.52907,-3.2269 -7.7695,-4.16108 -14.54882,-2.17793 -21.33333,0.54878 -21.33333,8.57389 0,4.1074 1.52669,4.5527 16.96926,4.94959 7.45156,0.19151 8.52129,-0.12039 10.43617,-3.04287 z"
         id="path58" />
      <path
         style="fill:#cccccc"
         d="m 300.05926,434.62139 c 0.41836,-2.59157 1.21158,-5.44157 1.76272,-6.33333 1.28142,-2.07339 -14.0991,-2.28048 -17.90964,-0.24114 -2.85462,1.52775 -3.33111,5.38976 -1.16445,9.43819 1.19958,2.24143 2.56474,2.58273 8.98264,2.24568 7.53404,-0.39566 7.57149,-0.41863 8.32873,-5.1094 z"
         id="path57" />
      <path
         style="fill:#cccccc"
         d="M 252.65813,434.63979 C 252.02592,432.64786 250.63285,432 246.98193,432 h -4.83837 l 4.53501,4.67895 c 3.74861,3.86758 4.7329,4.32533 5.6762,2.63976 0.62765,-1.12155 0.76416,-3.22708 0.30336,-4.67895 z"
         id="path56" />
      <path
         style="fill:#cccccc"
         d="M 281.79912,439.29066 C 280.74148,436.53448 280,436.85927 280,440.07869 c 0,1.50995 0.5738,2.39073 1.2751,1.9573 0.70131,-0.43343 0.93711,-1.66884 0.52402,-2.74536 z"
         id="path55" />
      <path
         style="fill:#cccccc"
         d="m 273.66667,441.34804 c 4.38235,-0.0276 2.34311,-4.04458 -3.49249,-6.87974 -7.53738,-3.66194 -15.10493,-2.70873 -14.94485,1.88246 0.13546,3.88474 5.43339,6.50977 11.43734,5.66701 2.56666,-0.36028 5.71666,-0.66166 7,-0.66973 z"
         id="path54" />
      <path
         style="fill:#cccccc"
         d="m 420,441.35874 c 0,-3.23534 -0.68199,-4.13702 -3.66667,-4.84786 -2.01666,-0.48029 -5.32468,-1.82582 -7.35116,-2.99007 -3.38222,-1.94317 -3.98383,-1.93414 -7.33333,0.11003 -3.34024,2.03851 -4.88806,7.0997 -3.27306,10.70249 0.24655,0.55 5.21286,1 11.03624,1 H 420 Z"
         id="path53" />
      <path
         style="fill:#cccccc"
         d="m 219.78598,441.93726 c 1.91723,-4.20785 1.96966,-6.85221 0.15808,-7.97183 -2.25913,-1.39622 -21.38513,-2.86979 -22.10614,-1.70318 -0.36408,0.5891 -2.42656,1.07108 -4.58328,1.07108 -3.00901,0 -3.92131,0.60949 -3.92131,2.61976 0,3.4469 3.40844,5.13071 12.56395,6.20676 4.13107,0.48553 7.82957,1.39819 8.2189,2.02813 0.38933,0.62994 2.37615,1.14535 4.41516,1.14535 2.67881,0 4.13655,-0.94214 5.25464,-3.39607 z"
         id="path52" />
      <path
         style="fill:#cccccc"
         d="m 89.120089,441.4443 c 0.249382,-1.75731 0.07152,-5.74184 -0.395255,-8.8545 -0.802104,-5.34881 -1.042967,-5.60743 -4.389063,-4.71255 -5.985102,1.60067 -7.6117,15.05136 -2.001529,16.55108 4.276465,1.14318 6.328187,0.24096 6.785847,-2.98403 z"
         id="path51" />
      <path
         style="fill:#cccccc"
         d="m 394.69585,444 c 3.62656,-5.74133 0.78073,-6.6243 -21.42812,-6.64846 l -16.73226,-0.0182 0.55963,4.79362 0.55962,4.79361 17.88891,-0.46028 c 14.08762,-0.36248 18.15735,-0.88528 19.15222,-2.46029 z"
         id="path50" />
      <path
         style="fill:#cccccc"
         d="m 184.63243,442.73288 c 1.11883,-2.16358 2.03424,-5.16358 2.03424,-6.66667 0,-2.58085 -0.77621,-2.73288 -13.95309,-2.73288 -12.4304,0 -14.10371,0.28145 -15.33333,2.57901 -1.96083,3.66384 -1.73828,5.06296 1.28642,8.08766 2.22079,2.22079 4.44444,2.66667 13.29909,2.66667 10.42549,0 10.67202,-0.0766 12.66667,-3.93379 z"
         id="path49" />
      <path
         style="fill:#cccccc"
         d="m 329.33333,447.49659 c 0,-3.41331 -3.29134,-4.58386 -15.57792,-5.54023 C 298.59387,440.77621 292,441.79788 292,445.32721 c 0,2.7681 3.19606,3.22372 26.33333,3.75401 8.57635,0.19656 11,-0.15258 11,-1.58463 z"
         id="path48" />
      <path
         style="fill:#cccccc"
         d="m 151.29714,447.77389 c 2.82112,-1.28539 3.36839,-2.36444 3.11412,-6.14005 l -0.30849,-4.58061 -14.05138,0.92317 c -15.35471,1.0088 -18.66866,2.46651 -16.17978,7.11703 0.88641,1.65628 3.17645,2.95027 5.79683,3.27551 9.24545,1.14754 18.35414,0.89694 21.6287,-0.59505 z"
         id="path47" />
      <path
         style="fill:#cccccc"
         d="m 353.85735,448.55762 c 0.44512,-1.15998 0.80932,-4.15998 0.80932,-6.66667 0,-3.9007 -0.45363,-4.55762 -3.14724,-4.55762 -1.73098,0 -5.85926,-0.37172 -9.17395,-0.82605 -5.03353,-0.68992 -6.49243,-0.36033 -8.85276,2 -3.35036,3.35036 -3.62754,7.16743 -0.73082,10.06415 2.9963,2.99629 19.94462,2.9852 21.09545,-0.0138 z"
         id="path46" />
      <path
         style="fill:#cccccc"
         d="m 113.74009,448.18307 c 2.05705,-1.35632 4.6868,-3.81766 5.8439,-5.46966 1.75998,-2.51271 1.80433,-3.18871 0.2714,-4.13612 -1.8962,-1.17191 -10.75761,-2.39964 -21.188723,-2.93565 l -6,-0.30831 -0.41446,5.01072 c -0.271626,3.2839 0.187874,5.17976 1.333334,5.50124 0.961286,0.26979 4.747792,1.4076 8.414459,2.52847 3.66667,1.12087 6.96667,2.09135 7.33333,2.15664 0.36667,0.0653 2.34971,-0.99102 4.40676,-2.34733 z"
         id="path45" />
      <path
         style="fill:#cccccc"
         d="M 444,452.66667 V 448 h -11.37518 c -9.09812,0 -11.5357,0.4183 -12.17704,2.08962 -0.44103,1.1493 -0.20419,2.68731 0.52631,3.4178 1.42003,1.42004 11.5637,3.41109 18.69258,3.66909 C 443.76003,457.32465 444,457.0749 444,452.66667 Z"
         id="path44" />
      <path
         style="fill:#cccccc"
         d="m 276.67618,454.63671 c 0.47073,-1.48315 0.46349,-4.48315 -0.0161,-6.66667 -0.83098,-3.78341 -1.19605,-3.96918 -7.76603,-3.95183 -3.79173,0.01 -8.23802,0.37841 -9.88064,0.81866 l -2.98657,0.80046 3.23084,2.54138 c 3.7397,2.94165 14.31325,9.11493 15.65246,9.13856 0.50058,0.009 1.29529,-1.19742 1.76603,-2.68056 z"
         id="path43" />
      <path
         style="fill:#cccccc"
         d="m 234.58469,450.58469 c -8.43755,-8.43755 -12.24189,-9.63537 -13.02853,-4.10212 -1.19095,8.37723 3.24165,11.69162 16.11051,12.04629 l 5,0.13781 z"
         id="path42" />
      <path
         style="fill:#cccccc"
         d="m 218.78543,457.57295 c 1.8541,-0.79308 1.89526,-1.44756 0.32951,-5.23962 C 217.69883,448.9037 216.54791,448 213.59618,448 c -2.05123,0 -4.41758,-0.68806 -5.25854,-1.52903 -0.84097,-0.84096 -6.03023,-1.81789 -11.53169,-2.17096 -9.9723,-0.63998 -10.00541,-0.63098 -10.90797,2.96509 -1.03628,4.12889 1.39481,9.6546 4.62821,10.51961 3.50374,0.93732 25.96637,0.769 28.25924,-0.21176 z"
         id="path41" />
      <path
         style="fill:#cccccc"
         d="m 185.33333,457.76133 c 0,-0.49793 -0.72053,-2.89793 -1.60118,-5.33333 -1.5314,-4.235 -1.90062,-4.428 -8.47108,-4.428 -14.33933,0 -23.14508,1.58672 -26.60596,4.79415 -1.82698,1.69319 -3.32178,3.70717 -3.32178,4.47552 0,0.91169 6.94792,1.397 20,1.397 11,0 20,-0.4074 20,-0.90534 z"
         id="path40" />
      <path
         style="fill:#cccccc"
         d="m 415.43053,458.5094 c 0.50668,-0.81982 1.3789,-3.51982 1.93827,-6 L 418.38584,448 h -9.59292 c -5.68338,0 -10.24499,-0.65207 -11.19292,-1.6 -1.14535,-1.14535 -1.6,-1.16935 -1.6,-0.0845 0,0.83354 -1.95,1.70354 -4.33333,1.93334 -3.62192,0.34921 -4.33334,0.96505 -4.33334,3.75114 0,3.08957 0.65099,3.43084 8.90182,4.66667 4.896,0.73333 9.346,1.78333 9.88889,2.33333 1.51995,1.53986 8.27157,1.18394 9.30649,-0.4906 z"
         id="path39" />
      <path
         style="fill:#cccccc"
         d="m 290.64846,454.33333 c -0.0256,-7.95336 -1.25751,-11.66666 -3.87064,-11.66666 -3.77597,0 -5.44449,2.90795 -5.44449,9.48889 0,6.48772 0.86717,7.54738 6.33334,7.73918 2.65974,0.0933 2.99793,-0.53745 2.98179,-5.56141 z"
         id="path38" />
      <path
         style="fill:#cccccc"
         d="m 142.3945,455.95057 c 0.3822,-3.27726 0.008,-3.45014 -12,-5.54348 -12.34667,-2.15239 -12.40339,-2.14963 -14.69819,0.71609 -1.26702,1.58225 -2.31702,3.89232 -2.33333,5.13349 -0.0335,2.55393 5.35214,3.41792 19.97035,3.20368 8.24663,-0.12086 8.68579,-0.29096 9.06117,-3.50978 z"
         id="path37" />
      <path
         style="fill:#cccccc"
         d="m 105.98372,458.83197 c 2.19104,-0.46888 4.17587,-1.85031 4.41073,-3.06984 0.62215,-3.23055 -20.253915,-9.79381 -27.079014,-8.51341 -3.618647,0.67886 -4.671525,1.43547 -4.093547,2.94165 C 79.64985,451.30562 80,452.76903 80,453.44238 c 0,0.67336 1.2,2.42429 2.666667,3.89095 2.141375,2.14138 4.308201,2.6356 11,2.50892 4.583333,-0.0868 10.126003,-0.54139 12.317053,-1.01028 z"
         id="path36" />
      <path
         style="fill:#cccccc"
         d="m 382.45265,457.93726 c 3.72203,-8.16897 0.9432,-9.8897 -16.02408,-9.92259 -10.64771,-0.0206 -14.25371,3.83443 -9.6863,10.35532 1.8608,2.65666 3.21855,2.96334 13.11932,2.96334 10.54046,0 11.11421,-0.15475 12.59106,-3.39607 z"
         id="path35" />
      <path
         style="fill:#cccccc"
         d="m 351,462.14394 c 1.28333,-0.97419 2.33333,-3.35511 2.33333,-5.29093 v -3.51968 h -13.83674 c -10.99819,0 -14.19628,0.43322 -15.58935,2.11177 -2.2331,2.69073 -0.2663,6.13662 4.21895,7.39167 5.7741,1.6157 20.41697,1.17218 22.87381,-0.69283 z"
         id="path34" />
      <path
         style="fill:#cccccc"
         d="m 314.50973,463.00369 c 4.19507,-2.40764 7.90678,-7.6983 6.43402,-9.17105 -1.42277,-1.42277 -11.88711,-3.04691 -20.02424,-3.10791 l -7.74715,-0.0581 0.41382,4.9467 c 0.39616,4.73565 0.72671,5.04296 7.74715,7.20262 9.41813,2.89724 8.47862,2.88386 13.1764,0.1877 z"
         id="path33" />
      <path
         style="fill:#cccccc"
         d="m 441,472.49295 c 2.51856,-0.67495 3,-1.71972 3,-6.51036 v -5.70639 l -11.19806,-1.66599 c -6.15893,-0.9163 -12.15893,-1.29728 -13.33333,-0.84662 -2.33979,0.89786 -2.93192,8.24724 -0.9204,11.42373 1.87886,2.96699 15.97245,5.04203 22.45179,3.30563 z"
         id="path32" />
      <path
         style="fill:#cccccc"
         d="m 415.00681,472.60747 c 1.52609,-0.58562 1.61294,-1.61611 0.44946,-5.33334 -1.1506,-3.67609 -2.13083,-4.60746 -4.84919,-4.60746 -1.87389,0 -4.08412,-0.67704 -4.91161,-1.50453 -2.42445,-2.42445 -20.39126,-3.26281 -21.81288,-1.01782 -1.9831,3.13167 -1.35031,7.72129 1.45074,10.52235 2.28915,2.28914 4.44445,2.66666 15.22429,2.66666 6.90669,0 13.40882,-0.32664 14.44919,-0.72586 z"
         id="path31" />
      <path
         style="fill:#cccccc"
         d="m 382.66667,472.0868 c 0,-0.68559 -0.58515,-2.78559 -1.30034,-4.66667 C 380.08093,464.03926 379.90016,464 365.61775,464 c -12.69727,0 -14.8019,0.32947 -17.36633,2.71861 -1.60495,1.49523 -2.91809,3.59523 -2.91809,4.66666 0,1.61576 3.18417,1.94806 18.66667,1.94806 10.68901,0 18.66667,-0.53273 18.66667,-1.24653 z"
         id="path30" />
      <path
         style="fill:#cccccc"
         d="m 178.03476,472 c 6.86855,0 7.00792,-0.0789 7.65587,-4.33333 0.36298,-2.38334 0.54595,-4.46847 0.40659,-4.63364 -0.81668,-0.96792 -19.89338,-1.90965 -23.80789,-1.17528 -3.56424,0.66866 -4.89007,1.69806 -5.5443,4.30473 -1.3583,5.4119 1.40811,7.6037 8.38936,6.64682 3.24746,-0.44512 9.05262,-0.8093 12.90037,-0.8093 z"
         id="path29" />
      <path
         style="fill:#cccccc"
         d="m 89.080487,467.66667 c 0.374396,-4.52366 0.104142,-5 -2.83674,-5 -5.446216,0 -9.485443,7.67184 -5.053271,9.59785 4.865546,2.11433 7.459595,0.60266 7.890011,-4.59785 z"
         id="path28" />
      <path
         style="fill:#cccccc"
         d="m 341.31924,472.68365 c 2.28715,-2.75585 0.70152,-6.01147 -2.94406,-6.04477 -1.67302,-0.0153 -6.8232,-0.82007 -11.44485,-1.78841 -8.32625,-1.74453 -8.42704,-1.73004 -11.03594,1.58663 -4.76171,6.05353 -1.54956,7.87534 14.27568,8.09666 6.91114,0.0967 9.95233,-0.40801 11.14917,-1.85011 z"
         id="path27" />
      <path
         style="fill:#cccccc"
         d="m 305.31585,473.56784 c 4.00448,-0.60321 6.12153,-1.62438 6.40297,-3.08848 0.54389,-2.82937 -14.72838,-7.81269 -23.94337,-7.81269 -5.39796,0 -6.44212,0.40307 -6.44212,2.48685 0,1.36777 1.24355,4.06777 2.76344,6 2.97649,3.78399 8.18905,4.37708 21.21908,2.41432 z"
         id="path26" />
      <path
         style="fill:#cccccc"
         d="m 121.16826,473 c -0.0744,-1.65 0.2998,-4.91221 0.83147,-7.24935 0.96337,-4.23482 0.9468,-4.25077 -4.84986,-4.66666 -3.1991,-0.22953 -10.19745,0.42173 -15.55189,1.44723 l -9.735359,1.86456 0.402023,4.79612 c 0.476524,5.68491 2.495931,6.4023 18.720416,6.65035 9.89582,0.15129 10.31287,0.0349 10.1832,-2.84225 z"
         id="path24" />
      <path
         style="fill:#cccccc"
         d="m 239.88663,475.18228 c 9.63382,-0.80343 10.64899,-1.16745 12.0928,-4.33626 1.40453,-3.08261 1.19304,-3.78872 -1.94267,-6.48595 -3.02173,-2.59918 -5.01974,-3.02674 -14.14411,-3.02674 -11.80688,0 -11.86306,0.0457 -13.99219,11.39499 l -0.94044,5.01301 4.20497,-0.84099 c 2.31273,-0.46255 8.93747,-1.23567 14.72164,-1.71806 z"
         id="path23" />
      <path
         style="fill:#cccccc"
         d="m 152.5229,475.60334 c 1.8757,-1.37155 2.17261,-2.76035 1.433,-6.7028 -0.51309,-2.73504 -1.91664,-5.49928 -3.11898,-6.14276 -1.20235,-0.64347 -7.35635,-0.84739 -13.67557,-0.45315 l -11.48948,0.7168 -1.33472,4.34891 c -2.03123,6.61835 -0.37257,8.03508 8.79895,7.51557 4.72089,-0.26741 8.25874,0.13493 8.79339,1 1.23156,1.99271 7.71841,1.81967 10.59341,-0.28257 z"
         id="path22" />
      <path
         style="fill:#cccccc"
         d="M 282.59174,473.19333 C 280.67737,469.61629 280,470.04403 280,474.82993 c 0,3.52321 0.30317,3.91165 1.97198,2.52666 1.46415,-1.21514 1.62375,-2.28728 0.61976,-4.16326 z"
         id="path21" />
      <path
         style="fill:#cccccc"
         d="m 209.22416,476.71239 c 8.39609,-2.23452 10.0848,-3.67636 11.80065,-10.07554 l 1.2593,-4.69649 -16.09918,0.0298 -16.09918,0.0298 -1.60707,5.33333 c -0.88389,2.93334 -1.65319,6.68334 -1.70954,8.33334 -0.0948,2.77691 0.46764,2.99882 7.56419,2.98417 4.21667,-0.009 10.91754,-0.881 14.89083,-1.93845 z"
         id="path20" />
      <path
         style="fill:#cccccc"
         d="m 276.07031,483.14842 c 0.7357,-1.93504 1.17085,-3.60284 0.96699,-3.70621 -6.7036,-3.39949 -21.97244,-9.03336 -22.52632,-8.31172 -0.0856,0.11156 -0.38036,3.65284 -0.65495,7.86951 l -0.49926,7.66667 h 10.68795 c 10.32344,0 10.73357,-0.11999 12.02559,-3.51825 z"
         id="path19" />
      <path
         style="fill:#cccccc"
         d="m 251.58552,481.79825 0.25219,-4.85645 -12.25219,0.85098 c -16.23902,1.12789 -18.56106,1.80539 -16.88992,4.92795 1.58801,2.96723 4.29442,3.53323 17.97107,3.75838 l 10.66666,0.1756 z"
         id="path18" />
      <path
         style="fill:#cccccc"
         d="m 110.66667,482.83177 c 0,-4.22798 1.94447,-3.70767 -23.704219,-6.34286 l -8.370883,-0.86003 1.448002,3.80853 c 2.623007,6.89903 3.420424,7.22926 17.457023,7.22926 h 13.170077 z"
         id="path17" />
      <path
         style="fill:#cccccc"
         d="m 375.66075,485.9455 c 6.45503,-0.79443 7.07837,-1.18518 8.08754,-5.0698 l 1.09344,-4.20903 -13.40211,-0.38345 c -11.44448,-0.32744 -13.64829,-0.0468 -15.08753,1.9215 -4.18044,5.71709 -0.74849,10.28306 6.98124,9.28807 2.93334,-0.37758 8.48068,-1.07387 12.32742,-1.54729 z"
         id="path16" />
      <path
         style="fill:#cccccc"
         d="m 290.66667,482.12483 c 0,-5.42149 -0.23167,-5.81847 -3,-5.14076 -4.46528,1.09312 -6.33334,2.9852 -6.33334,6.41476 0,2.97351 1.7735,4.10005 7,4.4465 1.8926,0.12546 2.33334,-0.95507 2.33334,-5.7205 z"
         id="path15" />
      <path
         style="fill:#cccccc"
         d="m 220.33833,485.47627 c 1.8083,-1.71462 -2.24807,-5.29069 -6.33833,-5.58782 -2.2,-0.15982 -9.29399,-0.2001 -15.76443,-0.0895 -10.42455,0.17817 -11.71399,0.46682 -11.32148,2.5344 0.67369,3.5488 10.68152,5.70829 22.41924,4.83763 5.5,-0.40797 10.45225,-1.17058 11.005,-1.69469 z"
         id="path14" />
      <path
         style="fill:#cccccc"
         d="m 184.50077,486.50719 c 0.22222,-0.27896 0.12925,-3.14301 -0.2066,-6.36456 l -0.61064,-5.85737 -12.76244,0.83833 c -9.31456,0.61185 -14.40482,1.65396 -18.84177,3.85737 -7.62442,3.78635 -8.68629,7.25102 -2.493,8.1341 4.91336,0.70058 34.2794,0.18931 34.91445,-0.60787 z"
         id="path13" />
      <path
         style="fill:#cccccc"
         d="m 138.37518,488.01821 c 3.55818,-0.0213 4.91554,-2.68358 3.74536,-7.34599 -0.81947,-3.26499 -1.05566,-3.32003 -13.80953,-3.21774 -7.1367,0.0572 -13.62399,0.64201 -14.4162,1.29949 -0.79222,0.65748 -1.17849,2.97984 -0.8584,5.1608 0.56335,3.83833 0.84444,3.98122 8.77279,4.45962 4.50494,0.27183 9.3908,0.30699 10.85747,0.0781 1.46666,-0.22886 4.03549,-0.4243 5.70851,-0.43431 z"
         id="path12" />
      <path
         style="fill:#cccccc"
         d="m 320.69982,489.06434 c 0.21124,-0.21872 0.79804,-3.17914 1.30401,-6.5787 l 0.91994,-6.18103 -5.79522,-0.56915 c -5.10848,-0.50171 -9.74552,0.0223 -20.79522,2.35003 -2.26405,0.47695 -3,1.56696 -3,4.44332 0,6.54792 4.09005,8.26067 17.82455,7.46425 5.03684,-0.29208 9.33071,-0.71 9.54194,-0.92872 z"
         id="path11" />
      <path
         style="fill:#cccccc"
         d="M 437.66667,489.43067 444,489.33333 V 482.66667 476 h -11.36633 c -12.58624,0 -12.59701,0.008 -14.65264,10.96556 l -0.85989,4.58358 7.1061,-1.01056 c 3.90835,-0.55582 9.95609,-1.05437 13.43943,-1.10791 z"
         id="path10" />
      <path
         style="fill:#cccccc"
         d="m 408.37617,490.20376 c 6.38644,-2.22399 7.58772,-3.46517 8.87413,-9.16895 l 1.04301,-4.62455 h -15.20952 c -16.96424,0 -16.71324,-0.13552 -18.37948,9.92307 l -0.9387,5.66667 9.78386,-0.0201 c 5.38112,-0.011 12.05314,-0.81031 14.8267,-1.77616 z"
         id="path9" />
      <path
         style="fill:#cccccc"
         d="m 351.66667,489.93048 c 2.4523,-0.75549 2.03214,-9.37453 -0.58454,-11.99121 -1.77406,-1.77405 -3.68166,-2.0793 -9,-1.44016 -3.71184,0.44607 -8.89813,0.81626 -11.52509,0.82263 -4.22469,0.0103 -4.93015,0.51292 -6.10857,4.35255 -2.08986,6.8094 -1.17459,7.65904 8.25062,7.65904 4.66227,0 8.84905,0.60221 9.30393,1.33823 0.72625,1.1751 4.34445,0.89763 9.66365,-0.74108 z"
         id="path8" />
      <path
         style="fill:#cccccc"
         d="m 281.8155,498 c -0.42211,-1.1 -1.00328,-2 -1.29149,-2 -0.2882,0 -0.52401,0.9 -0.52401,2 0,1.1 0.58117,2 1.29149,2 0.71031,0 0.94612,-0.9 0.52401,-2 z"
         id="path7" />
      <path
         style="fill:#cccccc"
         d="m 441.89095,500.52397 c 1.37059,-0.5259 2.10905,-2.45298 2.10905,-5.5037 0,-4.67198 -0.0239,-4.69076 -5,-3.92829 -2.75,0.42138 -8.75,1.17556 -13.33333,1.67597 -8.45968,0.92362 -9.1003,1.29396 -7.25697,4.19525 1.9113,3.00829 18.40366,5.50927 23.48125,3.56081 z"
         id="path6" />
      <path
         style="fill:#cccccc"
         d="m 410.16515,500.48927 c 5.73451,-0.68903 6.73065,-1.20774 6.20194,-3.22951 -0.34643,-1.32474 -1.3654,-2.69088 -2.26437,-3.03585 -2.27252,-0.87204 -30.10741,0.6401 -30.0823,1.63424 0.11777,4.66371 10.52745,6.50762 26.14473,4.63112 z"
         id="path5" />
      <path
         style="fill:#cccccc"
         d="m 381.95157,495.10512 c -0.34662,-3.42551 -0.92412,-6.52211 -1.28333,-6.88133 -1.29061,-1.2906 -26.0348,2.50186 -30.63434,4.69523 -3.37918,1.61142 -4.70057,3.10917 -4.70057,5.32793 0,3.07898 0.0447,3.08638 18.62423,3.08638 h 18.62422 z"
         id="path4" />
      <path
         style="fill:#cccccc"
         d="m 311.25723,500.12314 c 0.41137,-0.66561 0.23079,-2.6082 -0.40129,-4.31687 -1.04639,-2.82865 -2.38901,-3.2434 -15.00259,-4.63444 -7.61934,-0.84028 -14.11088,-1.29015 -14.42565,-0.99972 -0.31476,0.29042 0.40514,2.57775 1.59979,5.08295 2.41381,5.06183 3.96004,5.55155 18.56049,5.8785 4.90672,0.10987 9.25788,-0.34481 9.66925,-1.01042 z"
         id="path3" />
      <path
         style="fill:#cccccc"
         d="m 341.66667,500.41809 c 1.54654,-0.88999 1.18164,-5.03644 -0.6,-6.81809 -1.02816,-1.02816 -6.30026,-1.6 -14.75115,-1.6 h -13.15114 l 0.41781,4.33333 c 0.40495,4.2 0.64345,4.35783 7.75114,5.1293 6.99017,0.75871 18.20053,0.18283 20.33334,-1.04454 z"
         id="path2" />
    </g>
    <g
       id="layer3"
       inkscape:label="02"
       style="display:inline;fill:#803300">
      <path
         style="fill:#803300"
         d="m 277.33333,468.89458 v -7.10541 l -6.66666,-3.1225 C 267,456.94929 264,455.14812 264,454.66406 c 0,-0.48406 -1.65,-1.7315 -3.66667,-2.77209 -3.73345,-1.92643 -20.95385,-18.64621 -24.01922,-23.32096 -0.92724,-1.41405 -2.84167,-4.37101 -4.25427,-6.57101 -1.41261,-2.2 -3.05396,-4.63055 -3.64744,-5.40123 -2.11046,-2.74056 -4.4124,-7.25069 -4.4124,-8.64509 0,-0.7787 -1.2,-3.89954 -2.66667,-6.93519 -1.46666,-3.03565 -2.66666,-6.64612 -2.66666,-8.02325 0,-1.37714 -0.59397,-3.61371 -1.31992,-4.97017 -0.72596,-1.35646 -1.34122,-10.76702 -1.36725,-20.91235 -0.049,-19.10869 0.19234,-22.39568 1.75969,-23.96302 0.51011,-0.51011 0.92748,-2.53529 0.92748,-4.5004 0,-1.96511 0.96789,-5.51312 2.15087,-7.88446 2.53347,-5.07847 4.32099,-4.94479 17.43178,1.30364 4.53713,2.16234 8.77443,3.93152 9.41623,3.93152 0.6418,0 3.65062,1.2 6.68627,2.66667 3.03565,1.46666 6.01362,2.66666 6.61772,2.66666 0.6041,0 4.68308,1.78117 9.06441,3.95816 4.38133,2.17698 8.60335,3.97698 9.38228,4 0.77892,0.023 4.07892,1.33579 7.33333,2.91728 3.25441,1.58148 6.66711,2.88148 7.58377,2.88888 0.91667,0.007 1.66667,0.51346 1.66667,1.12457 0,0.61111 0.83142,1.11111 1.84759,1.11111 1.01618,0 3.52316,0.8693 5.57107,1.93177 4.26019,2.21021 5.30373,1.88184 6.31554,-1.98735 0.5478,-2.09481 -0.13941,-3.11378 -2.83906,-4.20963 -1.95899,-0.7952 -6.10527,-2.56084 -9.21394,-3.92364 -3.10868,-1.3628 -6.20198,-2.47781 -6.874,-2.47781 -0.67203,0 -3.82857,-1.2852 -7.01453,-2.856 -3.18597,-1.57079 -6.99267,-3.311 -8.45934,-3.86712 -1.46666,-0.55612 -5.51012,-2.27092 -8.98547,-3.81067 -3.47534,-1.53975 -6.79061,-2.79955 -7.36728,-2.79955 -0.57666,0 -4.6332,-1.78117 -9.01453,-3.95815 -4.38133,-2.17699 -8.60376,-3.97699 -9.38318,-4 -0.77942,-0.023 -4.47921,-1.51904 -8.22176,-3.32451 -5.85932,-2.82663 -6.69467,-3.70313 -6.01313,-6.30934 0.43532,-1.66468 1.32069,-3.63748 1.96749,-4.38401 0.64679,-0.74653 2.33176,-3.15732 3.74437,-5.35732 1.4126,-2.2 3.32703,-5.16504 4.25427,-6.58897 2.24546,-3.44829 19.55856,-20.74436 20.76478,-20.74436 0.5216,0 2.44223,-1.36246 4.26807,-3.02769 7.29147,-6.65006 27.21435,-15.49016 39.98637,-17.74259 14.86272,-2.62115 49.79437,-0.63536 53.46934,3.03961 1.286,1.286 -1.26474,11.48925 -4.17802,16.71257 -0.71022,1.27339 -1.29132,3.11069 -1.29132,4.0829 0,0.97221 -1.2,4.25137 -2.66666,7.28702 C 345.2,292.05414 344,295.09825 344,295.78318 c 0,0.68494 -0.86929,2.9209 -1.93176,4.96881 -1.06247,2.04791 -1.62706,4.2165 -1.25465,4.81908 0.37242,0.60258 0.1727,1.0956 -0.44381,1.0956 -0.61652,0 -1.93914,2.85 -2.93917,6.33333 -1.00003,3.48333 -2.24557,6.93333 -2.76787,7.66667 -0.5223,0.73333 -2.96535,7.21741 -5.429,14.40907 -3.81813,11.14555 -4.1906,13.25818 -2.52322,14.31166 3.24085,2.04762 4.49471,0.77925 7.40062,-7.48626 1.5278,-4.34563 3.40735,-9.40114 4.17678,-11.23447 0.76944,-1.83334 1.13402,-3.78334 0.81017,-4.33334 -0.32384,-0.55 -0.0844,-1 0.53213,-1 0.61652,0 1.93666,-2.76268 2.93365,-6.13928 0.997,-3.37661 2.92799,-8.44763 4.29109,-11.26893 1.36311,-2.8213 2.47837,-6.02321 2.47837,-7.11536 0,-1.09214 0.6,-2.35654 1.33334,-2.80976 C 351.4,297.54678 352,296.12406 352,294.83842 c 0,-1.28565 1.2,-4.82126 2.66667,-7.85691 1.46666,-3.03565 2.66666,-6.41293 2.66666,-7.50508 0,-1.09214 0.6,-2.35654 1.33334,-2.80976 C 359.4,276.21344 360,274.79765 360,273.52046 c 0,-6.06493 5.11537,-11.77586 7.33333,-8.18713 0.45323,0.73334 1.71396,1.33334 2.80163,1.33334 1.08768,0 2.70227,0.61577 3.58798,1.36839 0.88572,0.75262 4.61039,3.302 8.27706,5.66529 6.71697,4.32932 26,22.6433 26,24.6934 0,0.60688 1.14475,2.33217 2.5439,3.83397 1.39914,1.50181 3.87974,5.36495 5.51244,8.58475 1.63271,3.21981 3.35865,6.1542 3.83545,6.52086 0.78031,0.60008 3.82995,9.87949 8.11512,24.6926 1.01327,3.50271 1.31591,11.81679 0.87361,24 -0.72012,19.83594 -1.77257,28.21063 -3.6945,29.39845 -0.65231,0.40315 -1.18602,2.07759 -1.18602,3.72098 0,1.64338 -0.62379,3.61176 -1.3862,4.37417 -0.82113,0.82113 -1.22876,6.47084 -1,13.85958 L 422,429.8525 l 2.66667,-5.57762 c 1.46666,-3.06769 3.11666,-5.5845 3.66666,-5.59292 0.55,-0.008 1,-1.21529 1,-2.68196 0,-1.46667 0.6,-2.66667 1.33334,-2.66667 0.73333,0 1.33333,-0.83141 1.33333,-1.84759 0,-1.01617 0.86929,-3.52315 1.93176,-5.57106 1.06247,-2.04792 1.62706,-4.2165 1.25465,-4.81908 -0.37242,-0.60258 -0.0417,-1.0956 0.7349,-1.0956 0.77661,0 1.41202,-1.76459 1.41202,-3.92131 0,-2.15672 0.51512,-4.23967 1.14472,-4.62878 1.66565,-1.02943 3.30635,-15.61656 3.3124,-29.44991 0.009,-20.90283 -3.50475,-36.01914 -12.63016,-54.33333 -1.73564,-3.48334 -3.60674,-6.33334 -4.158,-6.33334 -0.55126,0 -1.01034,-0.75 -1.02018,-1.66666 -0.0437,-4.07221 -24.09361,-29.79089 -33.98211,-36.34005 -8.59176,-5.69033 -22.40237,-12.65995 -25.08625,-12.65995 -1.14934,0 -2.46053,-0.6 -2.91375,-1.33334 C 361.54678,248.6 359.83136,248 358.18798,248 c -1.64339,0 -3.55798,-0.54033 -4.25465,-1.20072 -3.17646,-3.0111 -41.89104,-4.58913 -55.26666,-2.25271 -7.11435,1.24271 -21.46932,5.93711 -23.26667,7.60871 -0.69667,0.64793 -2.34667,1.17805 -3.66667,1.17805 -1.32,0 -2.4,0.6 -2.4,1.33334 0,0.73333 -1.2,1.33333 -2.66666,1.33333 C 265.2,256 264,256.6 264,257.33333 c 0,0.73334 -0.64189,1.33334 -1.42643,1.33334 -1.48381,0 -11.42988,6.54218 -17.13905,11.27347 -6.02929,4.99658 -16.89527,16.81974 -21.49932,23.39319 -1.79769,2.56667 -3.63985,4.96667 -4.09367,5.33334 -1.78966,1.44594 -7.67165,14.3921 -6.89281,15.17094 0.45598,0.45598 0.12906,0.82906 -0.7265,0.82906 -0.85555,0 -1.55555,1.16459 -1.55555,2.58797 0,1.42339 -0.6,2.9588 -1.33334,3.41203 -0.73333,0.45322 -1.33333,2.25322 -1.33333,4 0,1.74677 -0.53662,3.5076 -1.19249,3.91295 -1.65795,1.02467 -3.05615,10.28999 -3.28294,21.7548 -0.10518,5.31727 -0.71843,9.66727 -1.36277,9.66667 -2.73813,-0.003 1.78807,39.05989 4.88471,42.15653 0.52442,0.52442 0.95349,2.00248 0.95349,3.28457 0,2.64312 10.02081,22.10243 12.827,24.90862 1.01182,1.01182 1.83967,2.39747 1.83967,3.07922 0,1.5954 27.67335,29.23664 29.2706,29.23664 0.66307,0 2.06029,0.8547 3.10493,1.89934 2.03866,2.03866 19.4904,11.43399 21.23854,11.43399 0.57893,0 1.05259,-3.19744 1.05259,-7.10542 z"
         id="path25"
         transform="translate(-66.024971,-85.5867)" />
      <path
         style="fill:#803300"
         d="M 330.36999,371.25773 C 337.35788,366.36322 331.55814,352 322.5939,352 c -5.06311,0 -7.92723,1.25588 -7.92723,3.47599 0,1.02154 -0.6,1.85734 -1.33334,1.85734 -0.73333,0 -1.33333,2.66598 -1.33333,5.9244 0,7.02926 3.22505,10.0756 10.66667,10.0756 2.60699,0 6.07348,-0.93402 7.70332,-2.0756 z"
         id="path118"
         transform="translate(-66.024971,-85.5867)" />
    </g>
    <g
       id="layer4"
       inkscape:label="03"
       style="display:inline;fill:#ffccaa">
      <path
         style="fill:#ffccaa"
         d="m 361.93333,208.1788 c -1.10932,-1.01111 -35.8584,-29.08831 -40.26666,-32.53539 C 320.3518,174.61524 320,178.03328 320,191.83674 v 17.49659 h 21.6 c 12.2562,0 21.05206,-0.49943 20.33333,-1.15453 z"
         id="path172"
         transform="translate(-66.024971,-85.5867)" />
      <path
         style="fill:#ffccaa"
         d="m 318.60529,191 -0.0614,-18.33333 -10.17335,-8 c -5.59534,-4.4 -11.26772,-8.78403 -12.60529,-9.74228 -2.33187,-1.67057 -2.43195,-0.58695 -2.43195,26.33334 v 28.0756 H 306 318.66667 Z"
         id="path171"
         transform="translate(-66.024971,-85.5867)" />
      <path
         style="fill:#ffccaa"
         d="m 292,180.58059 v -28.75275 l -4.22162,-3.58059 c -9.99698,-8.47898 -9.11171,-11.10324 -9.11171,27.01048 v 34.0756 H 285.33333 292 Z"
         id="path170"
         transform="translate(-66.024971,-85.5867)" />
      <path
         style="fill:#ffccaa"
         d="m 277.33333,174.25074 v -35.08258 l -4.29192,-3.25075 C 262.96918,128.28859 264,124.48742 264,169.25773 v 40.0756 h 6.66667 6.66666 z"
         id="path169"
         transform="translate(-66.024971,-85.5867)" />
      <path
         style="fill:#ffccaa"
         d="m 262.58986,168.33333 -0.0768,-41 -12.08763,-9.69345 c -9.56059,-7.66694 -12.47138,-9.37498 -13.9232,-8.17008 -1.49781,1.24307 -1.83556,10.57104 -1.83556,50.69346 v 49.17007 h 14 14 z"
         id="path168"
         transform="translate(-66.024971,-85.5867)" />
      <path
         style="fill:#ffccaa"
         d="m 233.33333,161.33333 c 0,-26.4 -0.36673,-48 -0.81496,-48 -0.44822,0 -3.74822,2.45587 -7.33333,5.45749 l -6.51837,5.4575 v 42.5425 42.54251 H 226 h 7.33333 z"
         id="path167"
         transform="translate(-66.024971,-85.5867)" />
      <path
         style="fill:#ffccaa"
         d="m 217.33333,167.12668 c 0,-40.06025 -0.11866,-42.10622 -2.33333,-40.23178 -1.28333,1.08617 -5.48333,4.57309 -9.33333,7.7487 l -7,5.77383 v 34.45795 34.45795 H 208 h 9.33333 z"
         id="path166"
         transform="translate(-66.024971,-85.5867)" />
      <path
         style="fill:#ffccaa"
         d="m 197.33333,175.27649 v -34.05684 l -4.66662,3.72351 -4.66663,3.72351 -4e-5,30.33333 -4e-5,30.33333 h 4.66667 4.66666 z"
         id="path165"
         transform="translate(-66.024971,-85.5867)" />
      <path
         style="fill:#ffccaa"
         d="m 186.66667,179.93375 c 0,-23.78877 -0.33099,-29.1961 -1.73431,-28.33334 -0.95386,0.58644 -5.44895,4.06626 -9.98908,7.73292 L 166.68849,166 l -0.0109,21.66667 -0.0109,21.66666 h 10 10 z"
         id="path164"
         transform="translate(-66.024971,-85.5867)" />
      <path
         style="fill:#ffccaa"
         d="m 165.33333,188.59106 c 0,-23.6156 1.40512,-22.33989 -12.39973,-11.25773 l -7.4741,6 -0.0631,13 -0.0631,13 h 10 10 z"
         id="path163"
         transform="translate(-66.024971,-85.5867)" />
      <path
         style="fill:#ffccaa"
         d="M 144,197.24254 V 185.15175 L 140,188 c -3.78582,2.69574 -4,3.34314 -4,12.09079 v 9.24254 h 4 4 z"
         id="path162"
         transform="translate(-66.024971,-85.5867)" />
      <path
         style="fill:#ffccaa"
         d="m 134.66667,201.33333 c 0,-4.4 -0.34321,-8 -0.76268,-8 -0.82129,0 -19.23732,14.93329 -19.23732,15.59926 0,0.22041 4.5,0.40074 10,0.40074 h 10 z"
         id="path161"
         transform="translate(-66.024971,-85.5867)" />
      <path
         style="fill:#ffccaa"
         d="m 377.22222,220.8113 c -0.30555,-0.28712 -3.16232,-2.68712 -6.34837,-5.33333 l -5.79282,-4.8113 -126.87385,0.004 -126.87385,0.004 -6,5.27288 -5.999997,5.27287 139.222227,0.0568 c 76.57222,0.0313 138.97222,-0.17806 138.66666,-0.46518 z"
         id="path160"
         transform="translate(-66.024971,-85.5867)" />
      <path
         style="fill:#ffccaa"
         d="M 308.33333,232.00164 380,232 v -4.66667 -4.66666 H 239.48884 98.977684 l -0.803969,3 c -0.442183,1.65 -0.812162,3.72573 -0.822175,4.61274 -0.02702,2.39307 14.32007,2.78865 80.64846,2.22363 32.26667,-0.27487 90.91667,-0.5005 130.33333,-0.5014 z"
         id="path159"
         transform="translate(-66.024971,-85.5867)" />
      <path
         style="fill:#ffccaa"
         d="m 404.52556,232.14728 3.69114,-3.85271 -23.92053,-19.81395 c -13.15629,-10.89768 -42.42187,-35.11395 -65.03462,-53.81395 -22.61275,-18.7 -49.54727,-41.01192 -59.85449,-49.58203 l -18.74039,-15.582028 -0.40313,8.153255 c -0.36819,7.446563 -0.0793,8.464633 3.33333,11.745693 2.05505,1.97585 32.21075,26.61879 67.01265,54.76211 34.80191,28.14331 69.00191,55.81558 76,61.49393 6.9981,5.67835 13.06156,10.32835 13.47436,10.33334 0.4128,0.005 2.41155,-1.72466 4.44168,-3.84366 z"
         id="path158"
         transform="translate(-66.024971,-85.5867)" />
      <path
         style="fill:#ffccaa"
         d="M 91.117983,225 C 98.856189,218.95 125.77027,197.17127 150.92706,176.60282 176.08384,156.03437 205.81667,131.80276 217,122.7548 l 20.33333,-16.45085 v -8.581948 -8.581943 l -3.83973,3.096637 C 228.48856,96.273122 188.36166,129.35794 151.33333,159.97824 135.2,173.31958 119.3063,186.4323 116.014,189.11761 102.28731,200.31357 77.689755,220.67019 73.588418,224.22848 l -4.411582,3.82746 3.078248,3.89826 c 1.693037,2.14404 3.464166,3.93145 3.935842,3.97203 C 76.662601,235.9668 83.379777,231.05 91.117983,225 Z"
         id="path157"
         transform="translate(-66.024971,-85.5867)" />
      <path
         style="fill:#ffccaa"
         d="m 280.79127,246.61941 c 24.85866,-8.5665 56.45317,-8.60577 81.5,-0.10131 4.5602,1.54838 10.4102,2.81523 13,2.81523 H 380 V 242 234.66667 H 288.66667 197.33333 V 242 v 7.33333 h 37.79127 c 34.54231,0 38.46832,-0.23332 45.66667,-2.71392 z"
         id="path156"
         transform="translate(-66.024971,-85.5867)" />
      <path
         style="fill:#ffccaa"
         d="m 134.66667,242 v -7.33333 H 116 97.333333 V 242 249.33333 H 116 134.66667 Z"
         id="path155"
         transform="translate(-66.024971,-85.5867)" />
      <path
         style="fill:#ffccaa"
         d="m 380,252 c 0,-0.73333 -1.35,-1.32415 -3,-1.31292 -2.42592,0.0165 -2.61728,0.26775 -1,1.31292 2.58501,1.67056 4,1.67056 4,0 z"
         id="path154"
         transform="translate(-66.024971,-85.5867)" />
      <path
         style="fill:#ffccaa"
         d="m 350.87686,262.57957 c -1.71772,-0.68828 -3.62626,-0.94046 -4.2412,-0.56041 -0.61494,0.38005 -1.46176,0.13489 -1.88183,-0.5448 -1.35985,-2.20028 -22.82315,-3.17418 -35.91818,-1.6298 -24.08828,2.84089 -20.30542,3.98641 13.16435,3.98641 21.26616,0 30.9524,-0.41976 28.87686,-1.2514 z"
         id="path153"
         transform="translate(-66.024971,-85.5867)" />
      <path
         style="fill:#ffccaa"
         d="m 252.15352,261.5273 c 1.7489,-1.35999 6.47981,-4.35436 10.51315,-6.65416 L 270,250.69169 l -36.33333,-0.0125 -36.33334,-0.0125 V 257.33333 264 h 25.82019 c 23.11309,0 26.15358,-0.25925 29,-2.4727 z"
         id="path152"
         transform="translate(-66.024971,-85.5867)" />
      <path
         style="fill:#ffccaa"
         d="m 134.66667,257.33333 v -6.66666 H 116.84112 99.01558 l -0.826449,5 c -0.454547,2.75 -0.833053,5.75 -0.841123,6.66666 C 97.336961,263.588 101.94773,264 116,264 h 18.66667 z"
         id="path151"
         transform="translate(-66.024971,-85.5867)" />
      <path
         style="fill:#ffccaa"
         d="m 380,278.87857 c 0,-3.16117 -1.07801,-4.37482 -6.51377,-7.33333 C 369.90365,269.59536 366.44449,268 365.79919,268 364.79688,268 360,279.4526 360,281.84562 c 0,0.45157 4.5,0.82105 10,0.82105 h 10 z"
         id="path150"
         transform="translate(-66.024971,-85.5867)" />
      <path
         style="fill:#ffccaa"
         d="m 348.61537,275.66667 c 1.36152,-3.85 2.74424,-7.75 3.07271,-8.66667 0.46788,-1.3057 -6.72516,-1.66032 -33.21209,-1.63738 -31.09955,0.0269 -34.29022,0.24654 -39.80932,2.73997 C 272.75679,270.77257 256,281.16229 256,282.15661 c 0,0.28053 20.28147,0.51006 45.06994,0.51006 h 45.06994 z"
         id="path149"
         transform="translate(-66.024971,-85.5867)" />
      <path
         style="fill:#ffccaa"
         d="m 237.43028,274 8.9771,-8.66667 H 221.87036 197.33333 V 274 v 8.66667 h 15.55992 15.55992 z"
         id="path148"
         transform="translate(-66.024971,-85.5867)" />
      <path
         style="fill:#ffccaa"
         d="m 134.66667,274 v -8.66667 H 116 97.333333 V 274 282.66667 H 116 134.66667 Z"
         id="path147"
         transform="translate(-66.024971,-85.5867)" />
      <path
         style="fill:#ffccaa"
         d="M 380,289.33333 V 284 h -10.66667 c -5.86666,0 -10.66666,0.22673 -10.66666,0.50383 0,0.27711 -0.90806,2.67711 -2.0179,5.33334 l -2.01789,4.8295 H 367.31544 380 Z"
         id="path146"
         transform="translate(-66.024971,-85.5867)" />
      <path
         style="fill:#ffccaa"
         d="m 343.31544,289.83717 c 1.10984,-2.65623 2.01789,-5.05623 2.01789,-5.33334 0,-0.2771 -20.57823,-0.50383 -45.7294,-0.50383 h -45.7294 l -5.20786,5.33333 -5.20786,5.33334 h 48.91937 48.91937 z"
         id="path145"
         transform="translate(-66.024971,-85.5867)" />
      <path
         style="fill:#ffccaa"
         d="M 224,289.33333 228.22408,284 h -15.44537 -15.44538 v 5.33333 5.33334 h 11.2213 11.22129 z"
         id="path144"
         transform="translate(-66.024971,-85.5867)" />
      <path
         style="fill:#ffccaa"
         d="M 134.66667,289.33333 V 284 h -18 c -9.9,0 -18.000003,0.525 -18.000003,1.16667 0,0.64166 -0.375,3.04166 -0.833334,5.33333 L 97,294.66667 h 18.83333 18.83334 z"
         id="path143"
         transform="translate(-66.024971,-85.5867)" />
      <path
         style="fill:#ffccaa"
         d="m 380,307.95172 v -12.04829 l -12.94919,0.38162 -12.94918,0.38162 -4.38415,11.2578 c -2.41128,6.19179 -4.38415,11.44179 -4.38415,11.66666 0,0.22488 7.8,0.40887 17.33334,0.40887 H 380 Z"
         id="path136"
         transform="translate(-66.024971,-85.5867)" />
      <path
         style="fill:#ffccaa"
         d="m 336.04013,309 c 2.32868,-6.05 4.50771,-11.45 4.84228,-12 0.33456,-0.55 -21.80327,-1 -49.19518,-1 h -49.80349 l -6.2752,9.47555 c -6.82065,10.29918 -7.5085,12.67329 -3.94187,13.60535 1.28333,0.33537 24.33972,0.67936 51.23642,0.76443 L 331.80617,320 Z"
         id="path135"
         transform="translate(-66.024971,-85.5867)" />
      <path
         style="fill:#ffccaa"
         d="m 212.16751,308 5.96962,-12 h -10.4019 -10.4019 v 11.33333 11.33334 H 166 134.66667 V 307.33333 296 H 116 97.333333 v 12 12 h 54.432277 54.43228 z"
         id="path134"
         transform="translate(-66.024971,-85.5867)" />
      <path
         style="fill:#ffccaa"
         d="m 380,330 v -8.66667 h -17.73661 -17.7366 l -2.47549,7 c -1.36152,3.85 -2.74424,7.75 -3.07271,8.66667 -0.46141,1.28765 4.13501,1.66667 20.21209,1.66667 H 380 Z"
         id="path133"
         transform="translate(-66.024971,-85.5867)" />
      <path
         style="fill:#ffccaa"
         d="m 327.81496,331.21469 c 1.56844,-4.09859 2.85171,-7.99859 2.85171,-8.66667 0,-0.70816 -19.321,-1.19792 -46.33334,-1.17447 L 238,321.41376 l 20,8.5155 20,8.5155 23.48162,0.11096 23.48163,0.11095 z"
         id="path132"
         transform="translate(-66.024971,-85.5867)" />
      <path
         style="fill:#ffccaa"
         d="m 245.22222,338.14999 c -2.02643,-1.88463 -20.53998,-8.69359 -21.35661,-7.85458 -0.55563,0.57086 -1.41775,2.68792 -1.9158,4.70459 l -0.90556,3.66667 h 12.36676 c 6.80172,0 12.11677,-0.23251 11.81121,-0.51668 z"
         id="path131"
         transform="translate(-66.024971,-85.5867)" />
      <path
         style="fill:#ffccaa"
         d="m 202.08483,335 c 0.44127,-2.01667 1.3527,-5.4062 2.0254,-7.5323 0.67271,-2.12609 1.2231,-4.37609 1.2231,-5 0,-0.6239 -24,-1.13437 -53.33333,-1.13437 -51.11074,0 -53.333333,0.10338 -53.333333,2.48057 0,1.36432 -0.381555,5.26432 -0.847899,8.66667 l -0.847899,6.1861 h 52.155831 52.15583 z"
         id="path130"
         transform="translate(-66.024971,-85.5867)" />
      <path
         style="fill:#ffccaa"
         d="m 317.70278,350.33333 c 3.33474,-1.55781 7.46685,-8.27481 5.99554,-9.74612 -0.36334,-0.36334 -9.51429,-0.49411 -20.33543,-0.29058 l -19.67482,0.37004 13.15597,5.54609 c 14.79829,6.23844 15.87135,6.45042 20.85874,4.12057 z"
         id="path129"
         transform="translate(-66.024971,-85.5867)" />
      <path
         style="fill:#ffccaa"
         d="M 380,348.66667 V 340 h -21.15219 -21.15219 l -2.18114,5.71124 c -2.33417,6.11195 -2.71881,9.30665 -1.29226,10.7332 0.48889,0.48889 10.98889,0.88889 23.33334,0.88889 H 380 Z"
         id="path128"
         transform="translate(-66.024971,-85.5867)" />
      <path
         style="fill:#ffccaa"
         d="M 270.87305,348.62738 250.41276,340 H 235.20638 C 221.26915,340 220,340.20703 220,342.48057 c 0,1.36432 -0.38155,5.26432 -0.8479,8.66667 l -0.8479,6.18609 36.51457,-0.0393 36.51456,-0.0393 z"
         id="path127"
         transform="translate(-66.024971,-85.5867)" />
      <path
         style="fill:#ffccaa"
         d="m 199.2252,354.33333 c 0.33513,-1.65 0.88947,-5.55 1.23186,-8.66666 L 201.07958,340 H 149.20646 97.333333 v 8.66667 8.66666 h 50.641267 50.64126 z"
         id="path126"
         transform="translate(-66.024971,-85.5867)" />
    </g>
    <g
       id="layer5"
       inkscape:label="04">
      <path
         id="path137"
         style="fill:#ffccaa"
         d="m 135.99958,234.66678 v 41.33398 41.33203 h 30 30 v -41.33203 -41.33398 h -30 z m 5.4375,5.33398 h 24.61523 24.61524 v 36 36 h -24.61133 -24.60937 l -0.39063,-24.33398 c -0.21465,-13.38333 -0.21582,-29.58335 -0.004,-36 z"
         transform="translate(-66.024971,-85.5867)" />
      <path
         style="fill:#ffccaa"
         d="m 170.66667,276 c 0,-22.22222 -0.47864,-34.66667 -1.33334,-34.66667 C 168.55556,241.33333 168,245.77778 168,252 v 10.66667 h -12.66667 c -7.55555,0 -12.66666,0.53801 -12.66666,1.33333 0,0.79532 5.11111,1.33333 12.66666,1.33333 H 168 V 288 c 0,14.22222 0.49673,22.66667 1.33333,22.66667 0.8547,0 1.33334,-12.44445 1.33334,-34.66667 z"
         id="path140"
         transform="translate(-66.024971,-85.5867)" />
      <path
         style="fill:#00ffff"
         d="m 166.66667,251.33333 v -10 h -12 -12 v 10 10 h 12 12 z"
         id="path142"
         transform="translate(-66.024971,-85.5867)" />
      <path
         style="fill:#00ffff"
         d="M 189.33333,276 V 241.33333 H 180.66667 172 V 276 310.66667 h 8.66667 8.66666 z"
         id="path141"
         transform="translate(-66.024971,-85.5867)" />
      <path
         style="fill:#00ffff"
         d="m 166.66667,288.66667 v -22 h -12 -12 v 22 22 h 12 12 z"
         id="path139"
         transform="translate(-66.024971,-85.5867)" />
    </g>
  </g>
</svg>
