<svg xmlns="http://www.w3.org/2000/svg" width="49.948" height="40.92" viewBox="0 0 49.948 40.92">
  <g id="Group_219983" data-name="Group 219983" transform="translate(9721.957 -10419)" opacity="0.3">
    <path id="Path_117909" data-name="Path 117909" d="M41.3,15.373a8.024,8.024,0,0,0-9.825-5.287C25.722,4.845,15.9,7.964,13.885,15.409c-15.211-.59-16.057,21.848-.859,22.512h12.2c0-3.106,0-7.361,0-10.468L21.275,31.54c-.821,1.029-2.012,1.736-3.15.681a1.771,1.771,0,0,1-.036-2.527l7.641-7.922a2,2,0,0,1,3.078.52l.125.125L32.389,26l3.561,3.692a1.786,1.786,0,1,1-2.559,2.491l-1-1.04-3.579-3.692c0,2.336,0,8.2,0,10.467v8.711a1.79,1.79,0,0,0,3.579,0V37.921h8.626c14.452-.5,14.721-21.694.286-22.548Z" transform="translate(-9724 10411.52)"/>
  </g>
</svg>
