<svg xmlns="http://www.w3.org/2000/svg" width="40" height="40" viewBox="0 0 40 40">
  <g id="Group_189757" data-name="Group 189757" transform="translate(-37 -522)">
    <rect id="Rectangle_26291" data-name="Rectangle 26291" width="40" height="40" rx="2" transform="translate(37 522)" fill="#fff"/>
    <g id="noun-environment-3479898_1_" data-name="noun-environment-3479898 (1)" transform="translate(30 515.003)">
      <path id="Path_40043" data-name="Path 40043" d="M17.463,20.021a1.461,1.461,0,0,0,.495-.086,2.2,2.2,0,0,0,2.669,0,1.464,1.464,0,1,0,.568-2.839,2.2,2.2,0,0,0-3.805,0,1.464,1.464,0,0,0,.073,2.925Zm0-2.2a.694.694,0,0,1,.1.006.366.366,0,0,0,.387-.218,1.464,1.464,0,0,1,2.69,0,.366.366,0,0,0,.387.218.694.694,0,0,1,.1-.006.732.732,0,1,1,0,1.464.723.723,0,0,1-.369-.1.366.366,0,0,0-.442.052,1.462,1.462,0,0,1-2.038,0,.366.366,0,0,0-.442-.052.723.723,0,0,1-.369.1.732.732,0,0,1,0-1.464Z" transform="translate(0)" fill="#147cb5"/>
      <path id="Path_40044" data-name="Path 40044" d="M232.366,32.732a.3.3,0,0,1,.306.15.552.552,0,0,1,.06.216.366.366,0,1,0,.732,0,.55.55,0,0,1,.06-.22.3.3,0,0,1,.306-.15.366.366,0,0,0,0-.732,1.17,1.17,0,0,1-1.464,0,.366.366,0,0,0,0,.732Z" transform="translate(-206.122 -15.271)" fill="#147cb5"/>
      <path id="Path_40045" data-name="Path 40045" d="M177.1,96.257a1.064,1.064,0,0,0-.732-.257.366.366,0,0,0,0,.732.3.3,0,0,1,.306.15.552.552,0,0,1,.06.216.366.366,0,0,0,.732,0,.55.55,0,0,1,.06-.22.3.3,0,0,1,.306-.15.366.366,0,1,0,0-.732A1.064,1.064,0,0,0,177.1,96.257Z" transform="translate(-152.683 -76.344)" fill="#147cb5"/>
      <path id="Path_40046" data-name="Path 40046" d="M26.976,76.123A10.976,10.976,0,0,0,37.953,65.147a.366.366,0,0,0-.366-.366H34.66V63.164a2.649,2.649,0,0,0,.893.153,2.283,2.283,0,0,0,2.4-2.139,1.977,1.977,0,0,0-.436-1.231,1.716,1.716,0,0,0,.242-.88,1.885,1.885,0,0,0-1.314-1.747,2.413,2.413,0,0,0-4.3,0,2.027,2.027,0,0,0-1.07.861,1.949,1.949,0,0,0-1.535-.718A1.89,1.89,0,0,0,27.8,58.508a1.541,1.541,0,0,0-1.043,1.423,1.412,1.412,0,0,0,.173.678,1.613,1.613,0,0,0-.323.964,1.857,1.857,0,0,0,1.948,1.745,2.157,2.157,0,0,0,.613-.088v1.552H27.529L25.257,61.64a1.272,1.272,0,0,0-1.994-.07l-1.047-1.382a1.4,1.4,0,0,0-2.188,0L16.55,64.781h-.184a.366.366,0,0,0-.366.366A10.976,10.976,0,0,0,26.976,76.123Zm3.671-6.087a3.7,3.7,0,0,0-2.064-2.665A5.405,5.405,0,0,1,26.1,65.513h6.3a2.273,2.273,0,0,1,1.23,1.044,2.625,2.625,0,0,1-.05,2.121,4.7,4.7,0,0,0,.051,4.254,10.151,10.151,0,0,1-4.124,2.145A6.507,6.507,0,0,0,30.648,70.037Zm3.573,2.355-.025.024a4.046,4.046,0,0,1,.075-3.481,3.308,3.308,0,0,0,.015-2.714,2.633,2.633,0,0,0-.524-.708h3.453A10.171,10.171,0,0,1,34.22,72.391ZM31.791,60.242a.366.366,0,0,0,.027-.5,1.024,1.024,0,0,1-.258-.67,1.193,1.193,0,0,1,.958-1.1.366.366,0,0,0,.255-.246,1.663,1.663,0,0,1,3.042,0,.366.366,0,0,0,.255.246,1.193,1.193,0,0,1,.958,1.1,1.024,1.024,0,0,1-.258.67.366.366,0,0,0,.027.5,1.289,1.289,0,0,1,.425.937,1.556,1.556,0,0,1-1.668,1.407,1.872,1.872,0,0,1-.893-.22v-.681l.935-.623a.366.366,0,1,0-.406-.609l-.529.353v-.78a.366.366,0,1,0-.732,0v.78l-.529-.353a.366.366,0,1,0-.406.609l.935.623v.681a1.872,1.872,0,0,1-.893.22,1.556,1.556,0,0,1-1.668-1.407,1.289,1.289,0,0,1,.425-.937Zm-3.233,2.344a1.13,1.13,0,0,1-1.216-1.013.921.921,0,0,1,.3-.669.366.366,0,0,0,.027-.5.718.718,0,0,1-.181-.469.848.848,0,0,1,.685-.776.366.366,0,0,0,.255-.246,1.213,1.213,0,0,1,2.21,0,.365.365,0,0,0,.188.22,1.716,1.716,0,0,0,.24.819,1.954,1.954,0,0,0,.04,2.508,1.4,1.4,0,0,1-.594.131,1.384,1.384,0,0,1-.613-.139v-1.69a.366.366,0,0,0-.732,0v.506l-.2-.1a.366.366,0,1,0-.327.654l.53.265v.366A1.383,1.383,0,0,1,28.558,62.586Zm1.345.644a2.157,2.157,0,0,0,.613.088,2.11,2.11,0,0,0,1.186-.361,2.6,2.6,0,0,0,1.332.361,2.649,2.649,0,0,0,.893-.153v1.617H29.9Zm-5.671-1.375a.525.525,0,0,1,.432.215l1.962,2.712H21.839L23.8,62.069a.525.525,0,0,1,.432-.215Zm-3.62-1.224a.664.664,0,0,1,1.021,0l1.179,1.557-1.877,2.594H17.468Zm4.651,4.883A5.515,5.515,0,0,0,28.3,68.044,2.983,2.983,0,0,1,29.935,70.2a6.026,6.026,0,0,1-1.5,5.088,10.4,10.4,0,0,1-1.461.1,10.245,10.245,0,0,1-10.238-9.879Z" transform="translate(-0.001 -38.174)" fill="#147cb5"/>
    </g>
  </g>
</svg>
