<svg xmlns="http://www.w3.org/2000/svg" width="40" height="40" viewBox="0 0 40 40">
  <g id="Group_189759" data-name="Group 189759" transform="translate(-418 -522)">
    <rect id="Rectangle_26291" data-name="Rectangle 26291" width="40" height="40" rx="2" transform="translate(418 522)" fill="#fff"/>
    <g id="noun-seatbelt-5770125" transform="translate(428.008 532.662)">
      <path id="Path_40002" data-name="Path 40002" d="M68.678,7.7a.279.279,0,0,1-.2-.476l3.057-3.057L68.731,1.36,65.674,4.417a.279.279,0,1,1-.395-.395L68.534.768a.279.279,0,0,1,.394,0l3.2,3.2a.279.279,0,0,1,0,.395L68.875,7.617A.278.278,0,0,1,68.678,7.7Z" transform="translate(-51.537)" fill="#1e86be"/>
      <path id="Path_40003" data-name="Path 40003" d="M3.5,71.935a.278.278,0,0,1-.2-.082l-3.2-3.2a.279.279,0,0,1,0-.395l3.5-3.5A.279.279,0,1,1,4,65.149L.7,68.455,3.5,71.261l3.307-3.306a.279.279,0,1,1,.395.394l-3.5,3.5A.278.278,0,0,1,3.5,71.935Z" transform="translate(-0.026 -50.574)" fill="#1e86be"/>
      <path id="Path_40004" data-name="Path 40004" d="M18.2,50.785a1.3,1.3,0,0,1-.924-.382l-4.364-4.365a1.309,1.309,0,0,1,0-1.849l2.577-2.577a1.309,1.309,0,0,1,1.849,0L21.7,45.976a1.311,1.311,0,0,1,0,1.849L19.123,50.4A1.3,1.3,0,0,1,18.2,50.785Zm-1.787-9a.748.748,0,0,0-.53.219L13.3,44.583a.75.75,0,0,0,0,1.06l4.364,4.364a.751.751,0,0,0,1.06,0L21.3,47.43a.753.753,0,0,0,0-1.06h0L16.94,42.006a.748.748,0,0,0-.529-.219Z" transform="translate(-9.908 -32.044)" fill="#1e86be"/>
      <path id="Path_40005" data-name="Path 40005" d="M27.758,57.879a.681.681,0,0,1-.485-.2l-2.335-2.335a.686.686,0,0,1,0-.969l.731-.73a.686.686,0,0,1,.969,0l2.335,2.334h0a.686.686,0,0,1,0,.969l-.731.731A.68.68,0,0,1,27.758,57.879ZM26.154,54a.126.126,0,0,0-.09.037l-.731.731a.129.129,0,0,0,0,.18l2.335,2.335a.129.129,0,0,0,.18,0l.731-.731a.13.13,0,0,0,0-.18l-2.335-2.335a.127.127,0,0,0-.09-.037Z" transform="translate(-19.559 -41.699)" fill="#1e86be"/>
      <path id="Path_40006" data-name="Path 40006" d="M47.792,20.543a.973.973,0,0,1-.693-.286l-2.624-2.625a.981.981,0,0,1,0-1.386l1.115-1.115a1.273,1.273,0,0,0-.01-1.8.279.279,0,0,1,0-.395l1.291-1.291a.982.982,0,0,1,1.386,0l4.824,4.824h0a.98.98,0,0,1,0,1.39l-1.3,1.281a.279.279,0,0,1-.393,0,1.265,1.265,0,0,0-1.787,0l-1.115,1.115a.973.973,0,0,1-.693.286Zm-1.636-7.392a1.83,1.83,0,0,1-.172,2.375L44.869,16.64a.424.424,0,0,0,0,.6l2.624,2.624a.424.424,0,0,0,.6,0l1.115-1.114a1.825,1.825,0,0,1,2.365-.181l1.114-1.1a.423.423,0,0,0,0-.6h0l-4.824-4.825a.424.424,0,0,0-.6,0Z" transform="translate(-34.932 -8.437)" fill="#1e86be"/>
      <path id="Path_40007" data-name="Path 40007" d="M53.126,35.355a.279.279,0,0,1-.2-.082l-1.91-1.911a.279.279,0,0,1,0-.395l1-1a.279.279,0,0,1,.394,0l1.911,1.911a.279.279,0,0,1,0,.395l-1,1A.279.279,0,0,1,53.126,35.355ZM51.61,33.166l1.516,1.515.6-.6-1.516-1.516Z" transform="translate(-40.266 -24.663)" fill="#1e86be"/>
      <path id="Path_40008" data-name="Path 40008" d="M71.376,48.895a.279.279,0,0,1-.27-.349l.772-2.963a.279.279,0,0,1,.467-.127l.35.35,2.668-2.668a1.054,1.054,0,0,1,1.49,1.49h0L74.186,47.3l.351.35a.279.279,0,0,1-.127.467l-2.963.772A.279.279,0,0,1,71.376,48.895Zm.92-2.7-.53,2.032L73.8,47.7l-.2-.2a.279.279,0,0,1,0-.395l2.865-2.865h0a.474.474,0,0,0-.04-.7.469.469,0,0,0-.661,0L72.893,46.4a.279.279,0,0,1-.395,0Zm4.36-1.763Z" transform="translate(-56.2 -33.323)" fill="#1e86be"/>
      <path id="Path_40009" data-name="Path 40009" d="M1.061,30.313a1.022,1.022,0,0,1-.725-.3,1.02,1.02,0,0,1-.04-1.49h0l2.668-2.668-.351-.35a.279.279,0,0,1,.127-.467L5.7,24.266a.279.279,0,0,1,.34.34l-.772,2.962A.279.279,0,0,1,4.8,27.7l-.35-.35L1.786,30.013a1.023,1.023,0,0,1-.725.3Zm-.37-1.4a.474.474,0,0,0,.04.7.468.468,0,0,0,.661,0l2.865-2.865a.279.279,0,0,1,.395,0l.2.2.53-2.032-2.032.53.2.2a.279.279,0,0,1,0,.395L.69,28.917Z" transform="translate(0 -18.63)" fill="#1e86be"/>
    </g>
  </g>
</svg>
