<svg xmlns="http://www.w3.org/2000/svg" width="40" height="40" viewBox="0 0 40 40">
  <g id="Group_189750" data-name="Group 189750" transform="translate(-418 -262)">
    <rect id="Rectangle_26291" data-name="Rectangle 26291" width="40" height="40" rx="2" transform="translate(418 262)" fill="#fff"/>
    <g id="noun-education-6097344" transform="translate(425.214 255.5)">
      <g id="Group_189265" data-name="Group 189265" transform="translate(1.787 15.5)">
        <g id="Group_189264" data-name="Group 189264" transform="translate(0 0)">
          <path id="Path_39969" data-name="Path 39969" d="M94.9,18.07l2.292.739v5.717c0,.4.422.438.427.44a20.385,20.385,0,0,0,8.257-.011.432.432,0,0,0,.387-.43V18.81l1.728-.557v3.325a1.3,1.3,0,0,0-.613,1.987l-.248,2.209a.432.432,0,0,0,.429.48h1.728a.432.432,0,0,0,.428-.491l-.294-2.139a1.3,1.3,0,0,0-.566-2.047c0-4.231,0-3.919,0-3.952a.432.432,0,0,0-.322-.384l-6.694-1.728a.432.432,0,0,0-.216,0l-6.694,1.728a.432.432,0,0,0-.025.829Zm10.5,6.1a19.1,19.1,0,0,1-7.342,0V19.088L101.6,20.23a.432.432,0,0,0,.265,0l3.538-1.141V24.17Zm3.023-1.8a.432.432,0,1,1-.432.432A.432.432,0,0,1,108.423,22.367Zm-.381,3.023.148-1.317a1.283,1.283,0,0,0,.421.007l.18,1.31Zm-6.314-9.012,5.145,1.328-5.145,1.66-5.145-1.66Z" transform="translate(-91.147 -15.5)" fill="#097fbd"/>
          <path id="Path_39970" data-name="Path 39970" d="M36.382,285.414A1.878,1.878,0,0,0,33.8,284.8l-4.525,2.754a1.537,1.537,0,0,0-1.525-1.327H22.042a2.116,2.116,0,0,1-1.1-.3,3.878,3.878,0,0,0-3.315-.343v-.654a.432.432,0,0,0-.432-.432H15.033a.432.432,0,0,0-.432.432v9.5a.432.432,0,0,0,.432.432h2.159a.432.432,0,0,0,.432-.432v-.392h8.167a.706.706,0,0,0,.372-.106L35.771,288A1.881,1.881,0,0,0,36.382,285.414ZM16.76,294h-1.3v-8.638h1.3Zm18.557-6.737-9.57,5.913H17.624v-6.659a3.016,3.016,0,0,1,2.865.147,2.979,2.979,0,0,0,1.552.425h5.708a.664.664,0,0,1,.672.634.647.647,0,0,1-.648.661H24.535a.432.432,0,0,0,0,.864h3.239c.5,0,.027.212,6.477-3.713a1.015,1.015,0,0,1,1.067,1.727Z" transform="translate(-14.601 -272.882)" fill="#097fbd"/>
        </g>
      </g>
    </g>
  </g>
</svg>
