<svg xmlns="http://www.w3.org/2000/svg" width="40" height="40" viewBox="0 0 40 40">
  <g id="Group_189754" data-name="Group 189754" transform="translate(-987 -262)">
    <rect id="Rectangle_26291" data-name="Rectangle 26291" width="40" height="40" rx="2" transform="translate(987 262)" fill="#fff"/>
    <g id="noun-e-government-5075462" transform="translate(993.238 267.786)">
      <path id="Path_39983" data-name="Path 39983" d="M23.567,4.214H20.33a.651.651,0,0,0-.651.651V7.727H17.547a.346.346,0,0,0-.346.346v3.578l-1.86-.984a.346.346,0,0,0-.324,0l-.767.406H12.19V7.568a.346.346,0,0,0-.346-.346H10.679V5.116a.9.9,0,0,0-.9-.9H3.663a.9.9,0,0,0-.9.9V8.938a.9.9,0,0,0,.9.9H5.239v.19h-.5a.778.778,0,0,0-.82.724v.539a.346.346,0,0,0,.346.346h4.91a.346.346,0,0,0,.346-.346v-.539a.777.777,0,0,0-.82-.724H8.2v-.19H9.778a.9.9,0,0,0,.9-.9V7.914H11.5v3.505a.346.346,0,0,0,.346.346h1.1L6.929,14.947a.346.346,0,0,0,.162.652h.863v.638a.346.346,0,0,0,.346.346h.167v.065a.919.919,0,0,0,.759.9V22.11a.919.919,0,0,0-.759.9v.065H7.6a.346.346,0,0,0-.346.346v1.211a.346.346,0,0,0,.346.346H22.757a.346.346,0,0,0,.346-.346V23.424a.346.346,0,0,0-.346-.346h-.864v-.065a.919.919,0,0,0-.759-.9V17.551a.919.919,0,0,0,.759-.9v-.065h.167a.346.346,0,0,0,.346-.346V15.6h.863a.346.346,0,0,0,.162-.652l-5.537-2.929v-3.6h1.786v2.87a.651.651,0,0,0,.651.651h3.237a.651.651,0,0,0,.651-.651V4.865A.652.652,0,0,0,23.567,4.214ZM8.829,10.766v.181H4.611v-.181a.179.179,0,0,1,.128-.044H8.7A.179.179,0,0,1,8.829,10.766ZM7.51,10.029H5.931v-.19H7.51ZM9.987,8.937a.212.212,0,0,1-.209.209H3.663a.212.212,0,0,1-.209-.209V5.116a.212.212,0,0,1,.209-.209H9.778a.212.212,0,0,1,.209.209V8.937ZM11.156,15.6v.292H8.645V15.6Zm1.652-1.306-.169-.38.368-.368.38.169a.346.346,0,0,0,.322-.022,2.781,2.781,0,0,1,.818-.339.346.346,0,0,0,.243-.212l.149-.387h.52l.149.387a.347.347,0,0,0,.243.212,2.794,2.794,0,0,1,.818.339.346.346,0,0,0,.322.022l.38-.169.368.368-.169.38a.347.347,0,0,0,.022.322,2.786,2.786,0,0,1,.339.818.346.346,0,0,0,.212.243l.387.149v.52l-.387.149a.347.347,0,0,0-.212.243,2.794,2.794,0,0,1-.339.818.346.346,0,0,0-.022.322l.169.38-.368.368-.38-.169a.347.347,0,0,0-.322.022,2.794,2.794,0,0,1-.818.339.346.346,0,0,0-.243.212l-.149.387h-.52l-.149-.387a.346.346,0,0,0-.243-.212,2.79,2.79,0,0,1-.817-.339.346.346,0,0,0-.322-.022l-.38.169-.368-.368.169-.38a.347.347,0,0,0-.022-.322,2.8,2.8,0,0,1-.339-.818.346.346,0,0,0-.212-.243l-.387-.149v-.52l.387-.149a.347.347,0,0,0,.212-.243,2.794,2.794,0,0,1,.339-.818A.347.347,0,0,0,12.809,14.293Zm6.971,7.8V17.566h.661v4.529H19.78Zm-1.451.918v.065H16.961v-.065a.919.919,0,0,0-.759-.9V19.431a3.494,3.494,0,0,0,.65-.272l.436.194a.346.346,0,0,0,.385-.072l.7-.7a.346.346,0,0,0,.072-.385l-.194-.436a3.474,3.474,0,0,0,.248-.575.92.92,0,0,0,.586.369v4.558A.919.919,0,0,0,18.328,23.013Zm-7.058-.9V17.551a.919.919,0,0,0,.586-.369,3.457,3.457,0,0,0,.248.575l-.194.436a.346.346,0,0,0,.072.385l.7.7a.346.346,0,0,0,.385.072l.436-.194a3.476,3.476,0,0,0,.649.272V22.11a.919.919,0,0,0-.759.9v.065H12.03v-.065A.919.919,0,0,0,11.271,22.109Zm-.692-4.544v4.529H9.918V17.566Zm4.931,4.529h-.661V20.108h.661Zm-1.42.918a.229.229,0,0,1,.226-.226h1.728a.229.229,0,0,1,.226.226v.065H14.09ZM9.159,16.648v-.065h2a.346.346,0,0,0,.1.24.224.224,0,0,1-.141.051H9.385A.229.229,0,0,1,9.159,16.648Zm0,6.365a.229.229,0,0,1,.226-.226h1.728a.229.229,0,0,1,.226.226v.065H9.159ZM22.41,24.289H7.948V23.77H22.41ZM21.2,23.013v.065H19.02v-.065a.229.229,0,0,1,.226-.226h1.728A.229.229,0,0,1,21.2,23.013Zm0-6.365a.229.229,0,0,1-.226.226H19.246a.223.223,0,0,1-.141-.051.345.345,0,0,0,.1-.24h2v.065Zm.513-.757H19.2V15.6h2.511Zm-3.238-.984a3.473,3.473,0,0,0-.221-.494l.194-.436a.346.346,0,0,0-.072-.385l-.7-.7a.346.346,0,0,0-.385-.072l-.436.194a3.488,3.488,0,0,0-.68-.282L16,12.283a.346.346,0,0,0-.323-.222h-1a.346.346,0,0,0-.323.222l-.171.445a3.482,3.482,0,0,0-.68.282l-.436-.194a.346.346,0,0,0-.385.072l-.7.7a.346.346,0,0,0-.072.385l.194.436a3.483,3.483,0,0,0-.221.494h-3.4l6.695-3.542,6.695,3.542Zm3.965-10-.027.109h-.929l-.027-.109Zm1.085,6.341H20.371V4.906h.372l.133.538a.346.346,0,0,0,.336.263h1.471a.346.346,0,0,0,.336-.263l.133-.538h.372Zm-.95-.512a.346.346,0,0,1-.346.346h-.562a.346.346,0,1,1,0-.692h.562A.346.346,0,0,1,22.575,10.736ZM11.744,6.267a.346.346,0,0,1-.022-.489,4.6,4.6,0,0,1,6.914,0,.346.346,0,0,1-.511.467,3.911,3.911,0,0,0-5.892,0A.346.346,0,0,1,11.744,6.267ZM15.179,7.7a1.538,1.538,0,0,0-1.141.52.346.346,0,1,1-.511-.467,2.2,2.2,0,0,1,3.3,0,.346.346,0,0,1-.511.467A1.539,1.539,0,0,0,15.179,7.7Zm0-1.4a2.753,2.753,0,0,0-2.043.93.346.346,0,1,1-.511-.467,3.4,3.4,0,0,1,5.109,0,.346.346,0,0,1-.511.467A2.754,2.754,0,0,0,15.179,6.3Zm0,2.179a.606.606,0,1,1-.606.606A.606.606,0,0,1,15.179,8.482Zm0,9.836a2.233,2.233,0,1,0-2.233-2.233A2.236,2.236,0,0,0,15.179,18.318Zm0-3.775a1.541,1.541,0,1,1-1.541,1.541A1.543,1.543,0,0,1,15.179,14.543Z" fill="#1e86be"/>
    </g>
  </g>
</svg>
