<svg xmlns="http://www.w3.org/2000/svg" width="40" height="40" viewBox="0 0 40 40">
  <g id="Group_189749" data-name="Group 189749" transform="translate(-229 -262)">
    <rect id="Rectangle_26291" data-name="Rectangle 26291" width="40" height="40" rx="2" transform="translate(229 262)" fill="#fff"/>
    <g id="noun-economy-5872435" transform="translate(233.992 264)">
      <path id="Path_39962" data-name="Path 39962" d="M4.646,21.949H5.868a.44.44,0,1,0,0-.879H4.646a1.761,1.761,0,0,1-1.759-1.759V9.638A1.761,1.761,0,0,1,4.646,7.879H21.353a1.761,1.761,0,0,1,1.759,1.759v.677a.44.44,0,1,0,.879,0V9.638A2.641,2.641,0,0,0,21.353,7H4.646A2.641,2.641,0,0,0,2.008,9.638v9.673A2.641,2.641,0,0,0,4.646,21.949Z" fill="#077ab6"/>
      <path id="Path_39963" data-name="Path 39963" d="M24.027,20.957a.44.44,0,0,0,.616-.081A5.87,5.87,0,0,0,25.8,17.308c-.247-7-8.547-7-8.793,0a5.8,5.8,0,0,0,1.439,3.9.44.44,0,0,0,.647-.6c-2.329-2.411-1.088-7.672,2.31-7.7,1.939,0,3.517,1.972,3.517,4.4a4.988,4.988,0,0,1-.976,3.032.439.439,0,0,0,.081.616Z" transform="translate(-8.405 -2.834)" fill="#077ab6"/>
      <path id="Path_39964" data-name="Path 39964" d="M44.646,13.078a.44.44,0,0,0,0-.879,1.761,1.761,0,0,1-1.759-1.759.44.44,0,1,0-.879,0A2.641,2.641,0,0,0,44.646,13.078Z" transform="translate(-22.413 -1.681)" fill="#077ab6"/>
      <path id="Path_39965" data-name="Path 39965" d="M7.646,10a.44.44,0,0,0-.44.44A1.761,1.761,0,0,1,5.448,12.2a.44.44,0,0,0,0,.879A2.641,2.641,0,0,0,8.086,10.44.44.44,0,0,0,7.646,10Z" transform="translate(-1.681 -1.681)" fill="#077ab6"/>
      <path id="Path_39966" data-name="Path 39966" d="M5.456,31a.44.44,0,0,0,0,.879,1.761,1.761,0,0,1,1.759,1.759.44.44,0,1,0,.879,0A2.641,2.641,0,0,0,5.456,31Z" transform="translate(-1.689 -13.448)" fill="#077ab6"/>
      <path id="Path_39967" data-name="Path 39967" d="M29.554,17.86l-4.14,5.623a1.754,1.754,0,0,0-2.041.558l-3.038-1.3a1.754,1.754,0,1,0-3.37.365l-4.773,3.411a.44.44,0,0,0,.511.715l4.776-3.413a1.752,1.752,0,0,0,2.508-.271l3.038,1.3a1.753,1.753,0,1,0,3.092-.839l4.14-5.623a1.76,1.76,0,1,0-.7-.527ZM18.6,23.353a.879.879,0,0,1,0-1.759A.879.879,0,0,1,18.6,23.353Zm6.155,2.638a.879.879,0,0,1,0-1.759A.879.879,0,0,1,24.758,25.991Zm6.155-10.112a.879.879,0,0,1,0,1.759A.879.879,0,0,1,30.913,15.879Z" transform="translate(-5.603 -4.482)" fill="#077ab6"/>
      <path id="Path_39968" data-name="Path 39968" d="M29.638,40.431h-.081a1.3,1.3,0,0,0,.081-.44V30.319A1.32,1.32,0,0,0,28.319,29H25.681a1.32,1.32,0,0,0-1.319,1.319v9.673a1.3,1.3,0,0,0,.081.44H23.4a31.692,31.692,0,0,0,.081-3.517,1.32,1.32,0,0,0-1.319-1.319H19.526a1.32,1.32,0,0,0-1.319,1.319,31.277,31.277,0,0,0,.081,3.517H17.246a1.3,1.3,0,0,0,.081-.44V34.716A1.32,1.32,0,0,0,16.008,33.4H13.37a1.32,1.32,0,0,0-1.319,1.319v5.276a1.3,1.3,0,0,0,.081.44H11.091a12.684,12.684,0,0,0,.081-2.2,1.32,1.32,0,0,0-1.319-1.319H7.215A1.32,1.32,0,0,0,5.9,38.233a12.653,12.653,0,0,0,.081,2.2H5.456a.44.44,0,0,0,0,.879H29.638a.44.44,0,0,0,0-.879Zm-19.345-.44a.44.44,0,0,1-.44.44H7.215a.44.44,0,0,1-.44-.44V38.233a.44.44,0,0,1,.44-.44H9.853a.44.44,0,0,1,.44.44Zm6.155,0a.44.44,0,0,1-.44.44H13.37a.44.44,0,0,1-.44-.44V34.716a.44.44,0,0,1,.44-.44h2.638a.44.44,0,0,1,.44.44Zm6.155,0a.44.44,0,0,1-.44.44H19.526a.44.44,0,0,1-.44-.44V36.914a.44.44,0,0,1,.44-.44h2.638a.44.44,0,0,1,.44.44Zm6.155,0a.44.44,0,0,1-.44.44H25.681a.44.44,0,0,1-.44-.44V30.319a.44.44,0,0,1,.44-.44h2.638a.44.44,0,0,1,.44.44Z" transform="translate(-1.69 -12.327)" fill="#077ab6"/>
    </g>
  </g>
</svg>
