<svg xmlns="http://www.w3.org/2000/svg" width="40" height="40" viewBox="0 0 40 40">
  <g id="Group_189753" data-name="Group 189753" transform="translate(-798 -257)">
    <rect id="Rectangle_26291" data-name="Rectangle 26291" width="40" height="40" rx="2" transform="translate(798 257)" fill="#fff"/>
    <g id="noun-document-187744" transform="translate(793.399 257.553)">
      <g id="Group_189266" data-name="Group 189266" transform="translate(13.6 6.447)">
        <path id="Path_39976" data-name="Path 39976" d="M58.778,1013.34a4.949,4.949,0,1,0,4.949,4.949A4.962,4.962,0,0,0,58.778,1013.34Zm0,.707a4.255,4.255,0,1,1-4.242,4.242A4.225,4.225,0,0,1,58.778,1014.047Z" transform="translate(-41.603 -996.768)" fill="#0e77b0"/>
        <path id="Path_39977" data-name="Path 39977" d="M28.762,1006.62v.607h9.627v-.607H28.762Z" transform="translate(-24.154 -992.09)" fill="#0e77b0" fill-rule="evenodd"/>
        <path id="Path_39978" data-name="Path 39978" d="M28.763,1014.43v.607h8.276a5.915,5.915,0,0,1,.659-.607H28.763Z" transform="translate(-24.155 -997.526)" fill="#0e77b0" fill-rule="evenodd"/>
        <path id="Path_39979" data-name="Path 39979" d="M13.6,958.809v24.92H25.981a5.886,5.886,0,0,1-.383-.608H14.208v-23.7H31.835V974.55a5.822,5.822,0,0,1,.608.144V958.809Z" transform="translate(-13.6 -958.809)" fill="#0e77b0" fill-rule="evenodd"/>
        <path id="Path_39980" data-name="Path 39980" d="M28.762,1022.24v.607h6.921a5.838,5.838,0,0,1,.211-.607H28.762Z" transform="translate(-24.155 -1002.963)" fill="#0e77b0" fill-rule="evenodd"/>
        <path id="Path_39981" data-name="Path 39981" d="M36.711,975.343l-3.444,1.723v4.3l3.444,1.723,3.444-1.723v-4.3Zm0,.68,2.837,1.419v3.552l-2.837,1.419-2.837-1.419v-3.552Zm0,.891-1.089.545v1.161l1.089.545,1.089-.545v-1.161Zm0,.68.481.241v.41l-.481.241-.481-.241v-.41Zm-1.875,1.624v1.366l1.875.937,1.875-.937v-1.366h-.608v.991l-1.267.633-1.267-.633v-.991Z" transform="translate(-27.29 -970.318)" fill="#0e77b0"/>
        <path id="Path_39982" data-name="Path 39982" d="M63.663,1020.41l-.183.707h1.178a.867.867,0,0,1,.812.524H63.663l-.183.707h1.99a.867.867,0,0,1-.812.524H63.479c.733,1.048,1.493,2.095,2.252,3.142h.681l-1.754-2.461h0a1.55,1.55,0,0,0,1.519-1.2h1.152l.183-.707H66.177a1.3,1.3,0,0,0-.209-.524h1.362l.183-.707Z" transform="translate(-48.321 -1001.689)" fill="#0e77b0"/>
      </g>
    </g>
  </g>
</svg>
