<svg xmlns="http://www.w3.org/2000/svg" width="40" height="40" viewBox="0 0 40 40">
  <g id="Group_189748" data-name="Group 189748" transform="translate(-39 -262)">
    <rect id="Rectangle_26291" data-name="Rectangle 26291" width="40" height="40" rx="2" transform="translate(39 262)" fill="#fff"/>
    <g id="noun-demography-5677702" transform="translate(44.385 269)">
      <g id="Group_189246" data-name="Group 189246">
        <path id="Path_39956" data-name="Path 39956" d="M53.234,10.5H47.6a.923.923,0,0,0,0,1.846h3.384L44.375,18.96l-4-4a.989.989,0,0,0-1.323,0L34.9,19.113a6.077,6.077,0,0,1,1.138,1.507l3.691-3.691,4,4a.928.928,0,0,0,1.323,0l7.26-7.26v3.384a.923.923,0,1,0,1.846,0V11.423A.925.925,0,0,0,53.234,10.5Z" transform="translate(-24.927 -10.5)" fill="none" stroke="#0276b3" stroke-width="1"/>
        <path id="Path_39957" data-name="Path 39957" d="M86.515,40.9H83.777a.683.683,0,0,0-.677.677V51.821a.683.683,0,0,0,.677.677h2.738a.683.683,0,0,0,.677-.677V41.608A.69.69,0,0,0,86.515,40.9Z" transform="translate(-58.3 -31.548)" fill="none" stroke="#0276b3" stroke-width="1"/>
        <path id="Path_39958" data-name="Path 39958" d="M66.515,51.2H63.777a.683.683,0,0,0-.677.677v7.075a.683.683,0,0,0,.677.677h2.738a.683.683,0,0,0,.677-.677V51.877A.646.646,0,0,0,66.515,51.2Z" transform="translate(-44.452 -38.68)" fill="none" stroke="#0276b3" stroke-width="1"/>
        <path id="Path_39959" data-name="Path 39959" d="M46.615,47.2H43.877a.683.683,0,0,0-.677.677v5.107a5.964,5.964,0,0,1,1.384,3.138v.031l.062.738h1.969a.683.683,0,0,0,.677-.677V47.877A.683.683,0,0,0,46.615,47.2Z" transform="translate(-30.674 -35.91)" fill="none" stroke="#0276b3" stroke-width="1"/>
        <path id="Path_39960" data-name="Path 39960" d="M12.085,64.531l-.123-.031a5.193,5.193,0,0,1-3.015.984A5.122,5.122,0,0,1,5.932,64.5l-.123.031a4.471,4.471,0,0,0-3.015,3.722l-.308,2.984a.9.9,0,0,0,.892.984H14.484a.915.915,0,0,0,.892-.984l-.308-2.953A4.489,4.489,0,0,0,12.085,64.531Z" transform="translate(-2.481 -47.888)" fill="none" stroke="#0276b3" stroke-width="1"/>
        <path id="Path_39961" data-name="Path 39961" d="M14.745,45.991A3.845,3.845,0,1,0,10.9,42.145,3.847,3.847,0,0,0,14.745,45.991Z" transform="translate(-8.31 -29.748)" fill="none" stroke="#0276b3" stroke-width="1"/>
      </g>
    </g>
  </g>
</svg>
