<svg xmlns="http://www.w3.org/2000/svg" width="40" height="40" viewBox="0 0 40 40">
  <g id="Group_189752" data-name="Group 189752" transform="translate(-608 -262)">
    <rect id="Rectangle_26291" data-name="Rectangle 26291" width="40" height="40" rx="2" transform="translate(608 262)" fill="#fff"/>
    <g id="noun-energy-1351614" transform="translate(604.044 258)">
      <path id="Path_39971" data-name="Path 39971" d="M40.351,28.959A.432.432,0,0,0,40,28.78H35.254a.432.432,0,0,0-.418.32l-1.783,6.575a.432.432,0,0,0,.418.544h1.348v5.5a.432.432,0,0,0,.769.271l7.125-8.905a.432.432,0,0,0-.337-.7H39.409l1-3.038a.432.432,0,0,0-.058-.389Zm1.126,4.291-5.792,7.24v-4.7a.432.432,0,0,0-.432-.432H34.035l1.547-5.711H39.4l-1,3.038a.432.432,0,0,0,.409.576h2.664Z" transform="translate(-14.299 -11.236)" fill="#056ea3"/>
      <path id="Path_39972" data-name="Path 39972" d="M13.832,35.317a9.769,9.769,0,0,1,1.526-5.273.433.433,0,0,0-.729-.467,10.679,10.679,0,0,0-.487,10.636.433.433,0,0,0,.769-.4A9.694,9.694,0,0,1,13.832,35.317Z" transform="translate(0 -11.661)" fill="#056ea3"/>
      <path id="Path_39973" data-name="Path 39973" d="M35.034,73.126A9.792,9.792,0,0,1,21.9,71.334a.433.433,0,0,0-.665.553A10.656,10.656,0,0,0,35.6,73.8l.386.461.708-1.944-2.036.357Z" transform="translate(-5.822 -41.423)" fill="#056ea3"/>
      <path id="Path_39974" data-name="Path 39974" d="M79,32.421a.433.433,0,1,0-.769.4,9.815,9.815,0,0,1-.723,10.175.432.432,0,1,0,.7.5A10.679,10.679,0,0,0,79,32.421Z" transform="translate(-45.899 -13.661)" fill="#056ea3"/>
      <path id="Path_39975" data-name="Path 39975" d="M32.108,13a10.575,10.575,0,0,0-6.143,1.947l-.386-.461-.708,1.941,2.036-.357-.38-.478A9.792,9.792,0,0,1,39.04,16.709a.432.432,0,0,0,.611-.611A10.6,10.6,0,0,0,32.108,13Z" transform="translate(-8.483)" fill="#056ea3"/>
    </g>
  </g>
</svg>
