<svg xmlns="http://www.w3.org/2000/svg" width="40" height="40" viewBox="0 0 40 40">
  <g id="Group_189760" data-name="Group 189760" transform="translate(-608 -522)">
    <rect id="Rectangle_26291" data-name="Rectangle 26291" width="40" height="40" rx="2" transform="translate(608 522)" fill="#fff"/>
    <g id="noun-health-2005151" transform="translate(610.054 520.307)">
      <g id="Group_189269" data-name="Group 189269" transform="translate(4.947 10.693)">
        <path id="Path_40010" data-name="Path 40010" d="M11.751,43.527a1.494,1.494,0,0,0,1.09-.53l.716,2.394a.723.723,0,0,0,1.4.088l1.572-3.559L18.386,48.1a.753.753,0,0,0,.667.6l.038,0a.762.762,0,0,0,.7-.507l2.07-4.6a.224.224,0,0,1,.1-.066h2.506a.585.585,0,1,0,0-1.17H21.958a1.327,1.327,0,0,0-1.162.751l-1.611,3.58-1.859-6.195a.723.723,0,0,0-1.4-.088l-1.571,3.557-.6-2.013a.755.755,0,0,0-1.4-.223l-.394.5-.017.028a.364.364,0,0,1-.188.1H5.434v.009a.584.584,0,0,0,0,1.152v.009Z" transform="translate(-4.947 -31.047)" fill="#1e86be"/>
        <path id="Path_40011" data-name="Path 40011" d="M30.068,12.7a6.861,6.861,0,0,0-9.7,0l-.886.887-.887-.887A6.862,6.862,0,0,0,7.879,21.125h1.43a5.69,5.69,0,0,1,8.454-7.594l1.715,1.714,1.714-1.714a5.69,5.69,0,1,1,8.047,8.047l-9.76,9.762-7.29-7.289H10.533l8.945,8.944,10.59-10.589a6.861,6.861,0,0,0,0-9.7Z" transform="translate(-6.294 -10.693)" fill="#1e86be"/>
      </g>
    </g>
  </g>
</svg>
