<svg xmlns="http://www.w3.org/2000/svg" width="40" height="40" viewBox="0 0 40 40">
  <g id="Group_189761" data-name="Group 189761" transform="translate(-9)">
    <rect id="Rectangle_26291" data-name="Rectangle 26291" width="40" height="40" rx="2" transform="translate(9)" fill="#fff"/>
    <g id="noun-mobility-2207559" transform="translate(16.999 8)">
      <path id="Path_40012" data-name="Path 40012" d="M50.914,2A2.917,2.917,0,0,0,48,4.914a3.033,3.033,0,0,0,.408,1.523l2.057,3.927a2.915,2.915,0,1,0,.9,0L53.4,6.554a3.053,3.053,0,0,0,.431-1.564V4.914A2.917,2.917,0,0,0,50.914,2ZM53,13.239a2.079,2.079,0,0,1-.042.416H50.914v.833h1.654a2.077,2.077,0,0,1-3.693-1.665h2.039V11.99H49.26A2.074,2.074,0,0,1,53,13.239ZM53,4.99a2.247,2.247,0,0,1-.323,1.155l-1.755,3.29-1.782-3.4a2.222,2.222,0,0,1-.3-1.12,2.081,2.081,0,0,1,4.163,0Z" transform="translate(-28.828 -2)" fill="#1e86be"/>
      <path id="Path_40013" data-name="Path 40013" d="M53.249,6A1.249,1.249,0,1,0,54.5,7.249,1.25,1.25,0,0,0,53.249,6Zm0,1.665a.416.416,0,1,1,.416-.416A.417.417,0,0,1,53.249,7.665Z" transform="translate(-31.163 -4.335)" fill="#1e86be"/>
      <path id="Path_40014" data-name="Path 40014" d="M2.382,43.833a6.611,6.611,0,0,1,2.3.417,9.009,9.009,0,0,1-2.714.415V45.5a10.354,10.354,0,0,0,2.483-.31,9.281,9.281,0,0,1,.684,1.7c-1.026.068-2.109.107-3.167.107v.833c1.128,0,2.289-.043,3.38-.119a14.7,14.7,0,0,1,.327,2.223c-1.183.1-2.454.148-3.707.148v.833c1.262,0,2.543-.053,3.742-.149,0,.049,0,.1,0,.149h.833c0-.074-.006-.149-.007-.223.919-.092,1.767-.211,2.5-.35,0,.053.008.1.008.157,0,.132,0,.262-.011.392l.831.049c.008-.146.013-.293.013-.441A7.5,7.5,0,0,0,2.382,43c-.148,0-.294,0-.44.012l.048.831C2.12,43.836,2.251,43.833,2.382,43.833ZM6.5,49.853a15.6,15.6,0,0,0-.323-2.214c.765-.068,1.472-.154,2.09-.253A6.615,6.615,0,0,1,8.961,49.5C8.25,49.643,7.412,49.761,6.5,49.853ZM7.79,46.62c-.549.079-1.166.146-1.817.2a10.7,10.7,0,0,0-.724-1.9,3.342,3.342,0,0,0,.425-.212A6.708,6.708,0,0,1,7.79,46.62Z" transform="translate(-1.942 -25.933)" fill="#1e86be"/>
      <path id="Path_40015" data-name="Path 40015" d="M2.833,25.668a2.918,2.918,0,0,1,2.912-2.914l11.241-.008a.416.416,0,0,0,.415-.384l1,.8-1,.8a.416.416,0,0,0-.415-.384l-11.239,0a2.084,2.084,0,0,0-2.081,2.081v2.5H4.5v-2.5a1.25,1.25,0,0,1,1.248-1.249l10.823,0v.416a.416.416,0,0,0,.676.325l2.081-1.665a.416.416,0,0,0,0-.65l-2.081-1.665a.416.416,0,0,0-.676.325v.416h-.833V21.5a1.244,1.244,0,0,0-.451-.957,1.249,1.249,0,1,0-2.428,0,1.244,1.244,0,0,0-.451.957v.419h-.833V21.5a1.244,1.244,0,0,0-.451-.957,1.249,1.249,0,1,0-2.428,0,1.244,1.244,0,0,0-.451.957v.422H7.411V21.5a1.244,1.244,0,0,0-.451-.957,1.249,1.249,0,1,0-2.428,0,1.244,1.244,0,0,0-.451.957v.82A3.748,3.748,0,0,0,2,25.668v.825h.833ZM13.239,21.5a.416.416,0,0,1,.28-.39.417.417,0,0,0,.207-.626.41.41,0,0,1-.071-.232.416.416,0,1,1,.833,0,.412.412,0,0,1-.071.233.417.417,0,0,0,.207.626.415.415,0,0,1,.28.39v.418H13.239Zm-4.163,0a.416.416,0,0,1,.28-.39.417.417,0,0,0,.207-.626.41.41,0,0,1-.071-.232.416.416,0,1,1,.833,0,.412.412,0,0,1-.071.233.417.417,0,0,0,.207.626.415.415,0,0,1,.28.39v.42H9.076Zm-4.163,0a.416.416,0,0,1,.28-.39.417.417,0,0,0,.207-.626.41.41,0,0,1-.071-.232.416.416,0,1,1,.833,0,.412.412,0,0,1-.071.233.417.417,0,0,0,.207.626.415.415,0,0,1,.28.39v.423H5.743a3.757,3.757,0,0,0-.83.1Z" transform="translate(-1.976 -11.924)" fill="#1e86be"/>
      <path id="Path_40016" data-name="Path 40016" d="M31.894,41.468a1.665,1.665,0,1,0-3.137,0,1.575,1.575,0,0,0-.929,1.435V44.66h-.416V42.9a1.575,1.575,0,0,0-.929-1.435,1.665,1.665,0,1,0-3.137,0,1.575,1.575,0,0,0-.929,1.435V44.66H22v.833H32.823A2.084,2.084,0,0,0,34.9,43.411v-2.5a.416.416,0,0,0-.416-.416h-.244L35.736,39,37.229,40.5h-.244a.416.416,0,0,0-.416.416v3.33a2.917,2.917,0,0,1-2.914,2.914h-3.33v.833h3.33A3.751,3.751,0,0,0,37.4,44.244V41.33h.833a.416.416,0,0,0,.294-.711l-2.5-2.5a.416.416,0,0,0-.589,0l-2.5,2.5a.416.416,0,0,0,.294.711h.833v2.081a1.25,1.25,0,0,1-1.249,1.249V42.9A1.574,1.574,0,0,0,31.894,41.468ZM23.249,42.9a.741.741,0,0,1,.74-.74.416.416,0,0,0,.309-.695.822.822,0,0,1-.217-.554.833.833,0,0,1,1.645-.18.819.819,0,0,1-.2.734.416.416,0,0,0,.31.695.741.741,0,0,1,.74.74V44.66h-3.33ZM28.66,44.66V42.9a.741.741,0,0,1,.74-.74.416.416,0,0,0,.309-.695.822.822,0,0,1-.217-.554.833.833,0,0,1,1.645-.18.819.819,0,0,1-.2.734.416.416,0,0,0,.31.695.741.741,0,0,1,.74.74V44.66Z" transform="translate(-13.651 -23.015)" fill="#1e86be"/>
      <rect id="Rectangle_26306" data-name="Rectangle 26306" width="0.833" height="0.833" transform="translate(0.024 15.402)" fill="#1e86be"/>
      <rect id="Rectangle_26307" data-name="Rectangle 26307" width="0.833" height="0.833" transform="translate(15.009 24.143)" fill="#1e86be"/>
      <rect id="Rectangle_26308" data-name="Rectangle 26308" width="5.411" height="0.833" transform="translate(8.766 24.143)" fill="#1e86be"/>
      <rect id="Rectangle_26309" data-name="Rectangle 26309" width="0.833" height="0.833" transform="translate(0.857)" fill="#1e86be"/>
      <rect id="Rectangle_26310" data-name="Rectangle 26310" width="0.833" height="0.833" transform="translate(0.024 0.833)" fill="#1e86be"/>
      <rect id="Rectangle_26311" data-name="Rectangle 26311" width="0.833" height="0.833" transform="translate(0.857 1.665)" fill="#1e86be"/>
      <rect id="Rectangle_26312" data-name="Rectangle 26312" width="0.833" height="0.833" transform="translate(1.689 0.833)" fill="#1e86be"/>
      <rect id="Rectangle_26313" data-name="Rectangle 26313" width="0.833" height="0.833" transform="translate(11.679 1.665)" fill="#1e86be"/>
      <rect id="Rectangle_26314" data-name="Rectangle 26314" width="0.833" height="0.833" transform="translate(10.847 2.498)" fill="#1e86be"/>
      <rect id="Rectangle_26315" data-name="Rectangle 26315" width="0.833" height="0.833" transform="translate(11.679 3.33)" fill="#1e86be"/>
      <rect id="Rectangle_26316" data-name="Rectangle 26316" width="0.833" height="0.833" transform="translate(12.512 2.498)" fill="#1e86be"/>
    </g>
  </g>
</svg>
