<svg xmlns="http://www.w3.org/2000/svg" width="40" height="40" viewBox="0 0 40 40">
  <g id="Group_189762" data-name="Group 189762" transform="translate(-987 -522)">
    <rect id="Rectangle_26291" data-name="Rectangle 26291" width="40" height="40" rx="2" transform="translate(987 522)" fill="#fff"/>
    <g id="noun-self-discipline-5962885" transform="translate(986 519)">
      <path id="Path_40017" data-name="Path 40017" d="M22.814,24.628a2.814,2.814,0,1,1,2.814-2.814A2.817,2.817,0,0,1,22.814,24.628Zm0-3.752a.938.938,0,1,0,.938.938A.939.939,0,0,0,22.814,20.876Z" transform="translate(-8.248 -6.186)" fill="#1e86be"/>
      <path id="Path_40018" data-name="Path 40018" d="M20.349,25.012a.938.938,0,0,0-1.08.771l-.4,2.375-2.68,1.532H12.939l-2.68-1.532-.4-2.375a.938.938,0,1,0-1.85.309l.469,2.814a.937.937,0,0,0,.46.66l2.81,1.606v5.964l-.931,7.447a.938.938,0,0,0,.814,1.047,1.079,1.079,0,0,0,.118.007.938.938,0,0,0,.929-.822l.836-6.683h2.1l.836,6.683a.938.938,0,0,0,.929.822,1.064,1.064,0,0,0,.118-.007.938.938,0,0,0,.814-1.047l-.931-7.447V31.172l2.81-1.606a.938.938,0,0,0,.46-.66l.469-2.814A.938.938,0,0,0,20.349,25.012Zm-6.721,6.554H15.5v4.69H13.628Z" transform="translate(0 -10.308)" fill="#1e86be"/>
      <path id="Path_40019" data-name="Path 40019" d="M61.628,30.257a5.628,5.628,0,1,1,5.628-5.628A5.634,5.634,0,0,1,61.628,30.257Zm0-9.381a3.752,3.752,0,1,0,3.752,3.752A3.756,3.756,0,0,0,61.628,20.876Z" transform="translate(-32.991 -6.186)" fill="#1e86be"/>
      <path id="Path_40020" data-name="Path 40020" d="M73.345,31.752H71.938A.938.938,0,0,1,71,30.814V28.938a.938.938,0,1,1,1.876,0v.938h.469a.938.938,0,1,1,0,1.876Z" transform="translate(-43.301 -12.372)" fill="#1e86be"/>
      <path id="Path_40021" data-name="Path 40021" d="M70.814,11.876H68.938a.938.938,0,0,1,0-1.876h1.876a.938.938,0,0,1,0,1.876Z" transform="translate(-41.239)" fill="#1e86be"/>
    </g>
  </g>
</svg>
